<?xml version="1.0" encoding="UTF-8"?>
<svg id="Layer_1" xmlns="http://www.w3.org/2000/svg" version="1.1" viewBox="0 0 2818.3 2818.3">
  <!-- Generator: Adobe Illustrator 29.0.0, SVG Export Plug-In . SVG Version: 2.1.0 Build 186)  -->
  <defs>
    <style>
      .st0 {
        fill: #fff;
      }
    </style>
  </defs>
  <path class="st0" d="M2416.7,924.9c0-158.8-55-293.2-152.7-397.1,12.2-36.7,67.2-189.4-12.2-391,0,0-122.2-36.7-403.2,152.7-116.1-30.5-244.4-48.9-366.6-48.9s-250.5,18.3-366.6,48.9c-281-189.4-403.2-152.7-403.2-152.7-79.4,201.6-30.5,354.3-12.2,391-91.6,103.9-152.7,232.2-152.7,397.1,0,562.1,342.1,690.3,665.9,727-42.8,36.7-79.4,103.9-91.6,195.5-85.5,36.7-293.2,103.9-427.6-122.2,0,0-79.4-140.5-226-152.7,0,0-140.5,0-12.2,91.6,0,0,97.7,42.8,164.9,213.8,0,0,85.5,287.1,494.8,195.5v610.9h727v-555.9h0v-201.6c0-134.4-48.9-226-97.7-274.9,323.8-36.7,672-158.8,672-727Z"/>
</svg>