<?xml version="1.0" encoding="UTF-8"?>
<svg version="1.1" xmlns="http://www.w3.org/2000/svg" width="512" height="512">
<path d="M0 0 C1.15740889 -0.00384115 2.31481778 -0.00768229 3.50729966 -0.01163983 C4.77450026 -0.01077335 6.04170086 -0.00990687 7.34730148 -0.00901413 C8.7105123 -0.01159885 10.07372236 -0.01461231 11.43693137 -0.01801753 C15.18218385 -0.02607816 18.92741715 -0.02787658 22.67267728 -0.028615 C26.71234096 -0.03046717 30.75199473 -0.0380153 34.79165268 -0.04475021 C43.62432246 -0.05832711 52.4569877 -0.06435717 61.28966618 -0.06876087 C66.80535669 -0.07152422 72.32104545 -0.07576172 77.83673477 -0.08026505 C93.1098291 -0.09245656 108.38292203 -0.10275631 123.65602112 -0.10614014 C124.63336078 -0.1063597 125.61070044 -0.10657927 126.61765645 -0.10680549 C128.08715868 -0.10713291 128.08715868 -0.10713291 129.58634782 -0.10746694 C131.57150539 -0.1079104 133.55666296 -0.10835696 135.54182053 -0.10880661 C137.01887831 -0.10913875 137.01887831 -0.10913875 138.52577564 -0.10947761 C154.48201934 -0.11342575 170.43821737 -0.1308808 186.39444342 -0.15416613 C202.77869679 -0.17788302 219.16292725 -0.19034213 235.54719806 -0.19150805 C244.74547612 -0.19242459 253.94369467 -0.1981716 263.14195633 -0.21632767 C270.97426126 -0.23173314 278.80648828 -0.23684645 286.63880548 -0.22858956 C290.63383959 -0.22468473 294.62871683 -0.22560448 298.62373161 -0.23964691 C302.28423122 -0.25239571 305.94445624 -0.25117988 309.60495552 -0.2390562 C311.5495909 -0.23617781 313.49423106 -0.24802754 315.43882871 -0.26047826 C323.88005354 -0.21284642 332.01688691 0.42658284 338.55305099 6.31892776 C339.47537521 7.1136348 339.47537521 7.1136348 340.41633224 7.92439651 C347.18838433 16.11756445 346.8193205 24.36746131 346.77399826 34.4898262 C346.78106284 36.14952738 346.78981012 37.80922212 346.80010605 39.4689064 C346.82254084 43.95833377 346.81967553 48.44740766 346.81078458 52.93686962 C346.80566532 56.68727857 346.81297425 60.43762165 346.82025665 64.18802381 C346.83723437 73.03201036 346.83370835 81.87582425 346.81696701 90.71980667 C346.80001699 99.84502057 346.81592445 108.96975711 346.84818989 118.09491897 C346.87486014 125.93460434 346.88216967 133.77414086 346.87367481 141.61386704 C346.86874186 146.29432551 346.87098214 150.97449623 346.89146233 155.65491867 C346.90978135 160.05135487 346.90390766 164.4471013 346.87926292 168.84350014 C346.87424443 170.45760565 346.87777171 172.07176343 346.89041138 173.68582726 C346.90629069 175.88746633 346.89144492 178.086819 346.86874008 180.28834915 C346.86815377 181.52053555 346.86756746 182.75272194 346.86696339 184.02224731 C346.24055099 187.13142776 346.24055099 187.13142776 343.88878918 189.55912018 C341.24055099 191.13142776 341.24055099 191.13142776 338.24055099 191.13142776 C337.62529684 199.7020787 337.62529684 199.7020787 341.02961349 207.08064651 C342.57738709 208.00877879 344.15545289 208.88777397 345.75617599 209.72127151 C355.2857558 215.13035691 359.8356198 225.63733996 362.64680099 235.70564651 C364.59379688 243.66014944 365.78842862 253.94055127 363.43122482 261.84553909 C362.52701102 265.74433381 362.38899436 268.18912165 363.24055099 272.13142776 C367.52267556 278.82742609 373.88809718 284.08849866 379.67805099 289.44392776 C381.2756232 290.97121651 382.87006335 292.5017886 384.46125412 294.03572464 C388.35247824 297.77325366 392.28381911 301.4633695 396.24055099 305.13142776 C396.57055099 299.85142776 396.90055099 294.57142776 397.24055099 289.13142776 C395.59055099 288.80142776 393.94055099 288.47142776 392.24055099 288.13142776 C390.45539474 286.89314651 390.45539474 286.89314651 389.24055099 285.13142776 C388.16539754 279.13575221 388.779779 273.27265619 391.83820724 267.98299026 C396.28036618 262.11785563 401.540901 258.11945867 408.75471115 256.60286331 C413.31413444 255.98623309 417.79310712 255.96896871 422.38898849 255.96345901 C423.36034744 255.96013062 424.33170639 255.95680222 425.33250046 255.95337296 C427.38159845 255.9483244 429.43070461 255.94596399 431.47980881 255.94612503 C434.59811201 255.94393998 437.71606035 255.92576603 440.83430099 255.90681839 C442.83169563 255.90388367 444.82909193 255.9018994 446.82648849 255.90095901 C447.75069595 255.8937735 448.67490341 255.88658798 449.62711716 255.87918472 C459.2827809 255.91290565 466.68476042 257.88709591 474.24055099 264.13142776 C480.38261539 271.53340281 480.54947742 279.23710435 480.54133224 288.43611526 C480.54561737 289.51466782 480.5499025 290.59322037 480.55431747 291.70445633 C480.56004278 293.97877172 480.56057435 296.25310542 480.55622482 298.52742386 C480.55306763 301.98819424 480.57653798 305.4481068 480.60187912 308.90877151 C480.60415272 311.12621836 480.60485533 313.34366749 480.60383224 315.56111526 C480.61764687 317.09903229 480.61764687 317.09903229 480.63174057 318.66801834 C480.57573292 327.4598166 479.17176017 335.07677947 472.95539474 341.62752151 C467.28034791 346.60449881 461.45977781 347.65886537 454.07258224 348.34627151 C449.76533822 348.01951507 447.23730336 346.12818013 444.24055099 343.13142776 C444.24055099 342.14142776 444.24055099 341.15142776 444.24055099 340.13142776 C440.28055099 340.46142776 436.32055099 340.79142776 432.24055099 341.13142776 C433.39055588 342.26048538 434.54056076 343.389543 435.72541428 344.55281448 C440.0184507 348.77305967 444.29791529 353.00684955 448.57355881 357.24470901 C450.42050966 359.07163346 452.27104609 360.89494082 454.12531662 362.71443558 C456.80101611 365.34122443 459.46324413 367.98106063 462.12336349 370.62361526 C463.35652802 371.82581207 463.35652802 371.82581207 464.61460495 373.05229568 C473.92452777 382.35861406 480.00639597 392.61665986 480.67805099 406.00642776 C480.31568824 415.90050647 476.90252619 424.85944039 470.24055099 432.13142776 C469.71590256 432.74631058 469.19125412 433.36119339 468.65070724 433.99470901 C461.9717254 441.33373142 453.0925094 445.31286742 443.24055099 446.13142776 C431.58223387 446.25512344 421.52084695 442.8777137 412.839077 434.93414974 C412.05898773 434.13273461 411.27889847 433.33131948 410.47517014 432.50561905 C409.5700116 431.58153244 408.66485306 430.65744583 407.73226547 429.7053566 C406.7467091 428.68880612 405.76119097 427.67221859 404.77570724 426.65559769 C403.72421782 425.57896164 402.67215461 424.50288573 401.61956406 423.4273262 C399.36005271 421.11758076 397.10312294 418.80535224 394.84772873 416.49158669 C391.27567802 412.83013848 387.68876628 409.18349812 384.09797287 405.54043961 C383.49081121 404.9243504 382.88364956 404.3082612 382.25808907 403.67350262 C381.01685911 402.41416878 379.77557338 401.1548899 378.53423309 399.89566481 C370.17971113 391.42051482 361.83334264 382.93818492 353.53693771 374.40608597 C347.93223142 368.64237213 342.3012133 362.90586357 336.63836002 357.19925004 C333.64628133 354.1819618 330.66914885 351.15270843 327.72373581 348.08979225 C324.95187794 345.20784861 322.14644466 342.36332833 319.31205559 339.5429039 C318.28222412 338.50578917 317.26509511 337.45586899 316.26259804 336.39230919 C310.43992869 330.1937924 310.43992869 330.1937924 302.57516098 327.74806023 C299.05110099 327.98808298 295.70878088 328.48006271 292.24055099 329.13142776 C275.42117725 330.27840381 259.45293251 327.98663753 246.27180099 316.55720901 C242.90987039 313.24841237 239.85993 310.06049628 237.24055099 306.13142776 C235.31613684 305.6261091 235.31613684 305.6261091 233.10773849 305.61970901 C232.30207443 305.5842598 231.49641037 305.54881058 230.66633224 305.51228714 C229.82457443 305.48972855 228.98281662 305.46716995 228.11555099 305.44392776 C227.26605881 305.40976761 226.41656662 305.37560745 225.54133224 305.34041214 C223.44153994 305.25783604 221.34106535 305.19295798 219.24055099 305.13142776 C218.97242599 306.08017776 218.70430099 307.02892776 218.42805099 308.00642776 C217.24055099 311.13142776 217.24055099 311.13142776 214.24055099 313.13142776 C211.27269373 313.33000252 208.39832461 313.40957716 205.4297142 313.3988533 C204.51807973 313.40338441 203.60644525 313.40791553 202.66718549 313.41258395 C199.59954872 313.4252867 196.53208817 313.42360378 193.46442795 313.42195511 C191.27009476 313.42793681 189.07576368 313.43474152 186.88143539 313.44231033 C180.91018074 313.46001695 174.93898337 313.46466776 168.96770501 313.46594191 C163.98521923 313.4678387 159.00274686 313.47519395 154.02026623 313.4822861 C142.93570241 313.49765468 131.8511612 313.50362243 120.76658807 313.50227539 C120.10129906 313.50219548 119.43601005 313.50211557 118.75056076 313.50203323 C117.75140668 313.50191059 117.75140668 313.50191059 116.73206767 313.50178547 C105.94497017 313.50097316 95.15801251 313.52009543 84.37095544 313.54830997 C73.29217421 313.57705846 62.21345063 313.59048308 51.13462991 313.58912241 C44.9158838 313.58861238 38.69729579 313.59431817 32.47858238 313.61547852 C26.6271074 313.63484428 20.77594153 313.63499647 14.92445564 313.62044525 C12.77826995 313.6183538 10.632065 313.62307798 8.48591232 313.63516617 C5.55234735 313.6506172 2.61984825 313.64131092 -0.313694 313.62590408 C-1.15991733 313.63619121 -2.00614066 313.64647834 -2.87800711 313.65707719 C-10.00327456 313.57457632 -15.07114051 311.39205082 -20.50944901 306.81892776 C-25.23869553 301.17010552 -27.87959773 295.83514974 -27.89087677 288.41645145 C-27.89471792 287.46655395 -27.89855906 286.51665645 -27.9025166 285.53797418 C-27.90165012 284.49742669 -27.90078364 283.45687919 -27.8998909 282.38479996 C-27.90286202 281.27700611 -27.90583314 280.16921226 -27.9088943 279.0278489 C-27.91759095 275.30235784 -27.91909037 271.57689888 -27.92058182 267.85139847 C-27.92520932 265.18564069 -27.93021326 262.51988585 -27.93562698 259.85412979 C-27.94920559 252.60192921 -27.95523442 245.34973415 -27.95963764 238.09752297 C-27.96240112 233.56796734 -27.9666387 229.03841383 -27.97114182 224.50885963 C-27.98333436 211.96458222 -27.99363338 199.42030651 -27.99701691 186.87602329 C-27.99723647 186.07323757 -27.99745604 185.27045186 -27.99768226 184.4433393 C-27.99790054 183.63864498 -27.99811881 182.83395066 -27.99834371 182.00487167 C-27.99878717 180.37428685 -27.99923373 178.74370203 -27.99968338 177.11311722 C-27.99990481 176.3042928 -28.00012624 175.49546838 -28.00035438 174.66213413 C-28.00430109 161.56079367 -28.0217513 148.45950888 -28.0450429 135.35818992 C-28.0687703 121.90295995 -28.08121941 108.4477579 -28.08238482 94.99250668 C-28.08330086 87.4396497 -28.08903498 79.88686523 -28.10720444 72.33402824 C-28.12262425 65.90156023 -28.12771486 59.46918714 -28.11946633 53.03670416 C-28.11556631 49.75657276 -28.1180981 46.47667186 -28.13052368 43.19655609 C-28.14322261 39.6351979 -28.13737693 36.07432862 -28.12694168 32.51297379 C-28.13499809 31.4835799 -28.14305449 30.45418602 -28.15135503 29.39359838 C-28.09159473 20.6611673 -26.60200638 13.17578032 -20.50163651 6.63533401 C-14.50705402 1.46063837 -7.7577604 0.0096824 0 0 Z " fill="#EDF1FE" transform="translate(29.759449005126953,32.86857223510742)"/>
<path d="M0 0 C1.15740889 -0.00384115 2.31481778 -0.00768229 3.50729966 -0.01163983 C4.77450026 -0.01077335 6.04170086 -0.00990687 7.34730148 -0.00901413 C8.7105123 -0.01159885 10.07372236 -0.01461231 11.43693137 -0.01801753 C15.18218385 -0.02607816 18.92741715 -0.02787658 22.67267728 -0.028615 C26.71234096 -0.03046717 30.75199473 -0.0380153 34.79165268 -0.04475021 C43.62432246 -0.05832711 52.4569877 -0.06435717 61.28966618 -0.06876087 C66.80535669 -0.07152422 72.32104545 -0.07576172 77.83673477 -0.08026505 C93.1098291 -0.09245656 108.38292203 -0.10275631 123.65602112 -0.10614014 C124.63336078 -0.1063597 125.61070044 -0.10657927 126.61765645 -0.10680549 C128.08715868 -0.10713291 128.08715868 -0.10713291 129.58634782 -0.10746694 C131.57150539 -0.1079104 133.55666296 -0.10835696 135.54182053 -0.10880661 C137.01887831 -0.10913875 137.01887831 -0.10913875 138.52577564 -0.10947761 C154.48201934 -0.11342575 170.43821737 -0.1308808 186.39444342 -0.15416613 C202.77869679 -0.17788302 219.16292725 -0.19034213 235.54719806 -0.19150805 C244.74547612 -0.19242459 253.94369467 -0.1981716 263.14195633 -0.21632767 C270.97426126 -0.23173314 278.80648828 -0.23684645 286.63880548 -0.22858956 C290.63383959 -0.22468473 294.62871683 -0.22560448 298.62373161 -0.23964691 C302.28423122 -0.25239571 305.94445624 -0.25117988 309.60495552 -0.2390562 C311.5495909 -0.23617781 313.49423106 -0.24802754 315.43882871 -0.26047826 C323.88005354 -0.21284642 332.01688691 0.42658284 338.55305099 6.31892776 C339.47537521 7.1136348 339.47537521 7.1136348 340.41633224 7.92439651 C347.18838433 16.11756445 346.8193205 24.36746131 346.77399826 34.4898262 C346.78106284 36.14952738 346.78981012 37.80922212 346.80010605 39.4689064 C346.82254084 43.95833377 346.81967553 48.44740766 346.81078458 52.93686962 C346.80566532 56.68727857 346.81297425 60.43762165 346.82025665 64.18802381 C346.83723437 73.03201036 346.83370835 81.87582425 346.81696701 90.71980667 C346.80001699 99.84502057 346.81592445 108.96975711 346.84818989 118.09491897 C346.87486014 125.93460434 346.88216967 133.77414086 346.87367481 141.61386704 C346.86874186 146.29432551 346.87098214 150.97449623 346.89146233 155.65491867 C346.90978135 160.05135487 346.90390766 164.4471013 346.87926292 168.84350014 C346.87424443 170.45760565 346.87777171 172.07176343 346.89041138 173.68582726 C346.90629069 175.88746633 346.89144492 178.086819 346.86874008 180.28834915 C346.86815377 181.52053555 346.86756746 182.75272194 346.86696339 184.02224731 C346.24055099 187.13142776 346.24055099 187.13142776 343.92394543 189.55521393 C341.24055099 191.13142776 341.24055099 191.13142776 337.67805099 191.19392776 C334.24055099 190.13142776 334.24055099 190.13142776 330.24055099 185.13142776 C330.24055099 154.77142776 330.24055099 124.41142776 330.24055099 93.13142776 C217.71055099 93.13142776 105.18055099 93.13142776 -10.75944901 93.13142776 C-10.67694901 125.88392776 -10.59444901 158.63642776 -10.50944901 192.38142776 C-10.49365799 202.73421097 -10.47786697 213.08699417 -10.46159744 223.75349808 C-10.42838952 233.01019211 -10.42838952 233.01019211 -10.38988113 242.26686478 C-10.37283277 246.39922612 -10.36701935 250.53144172 -10.36790848 254.66383743 C-10.36867739 259.92985965 -10.35048138 265.19549113 -10.31835985 270.46141195 C-10.30981632 272.39719525 -10.30802046 274.33302243 -10.31362486 276.26881647 C-10.32022457 278.87821383 -10.30246246 281.48633174 -10.27843094 284.09560013 C-10.29007215 285.23924341 -10.29007215 285.23924341 -10.30194855 286.4059906 C-10.24928023 289.63279695 -9.94818299 291.81728509 -8.27460384 294.6029129 C-4.61589247 296.8263922 -1.15199813 296.67554584 3.00201035 296.62349319 C3.89619818 296.62817218 4.79038602 296.63285117 5.71167046 296.63767195 C8.71434575 296.64862353 11.71618654 296.63109764 14.71882248 296.61384964 C16.86891045 296.61603495 19.01899723 296.62003082 21.16907883 296.62570572 C25.80231749 296.63427983 30.4353247 296.63047389 35.06855202 296.61728287 C42.39199947 296.59698383 49.71521246 296.60690714 57.03866196 296.62154007 C73.90777532 296.65060291 90.77682027 296.63983708 107.6459465 296.6288414 C123.10220274 296.6191741 138.55833734 296.61784712 154.01457268 296.64872217 C161.29738465 296.66211947 168.57984712 296.65610182 175.86263835 296.6353569 C180.39056456 296.62638731 184.91835525 296.63383028 189.44626999 296.64576912 C191.54856509 296.6479045 193.65087997 296.64315211 195.7531414 296.63106346 C198.61983012 296.61550643 201.48544011 296.62438814 204.352108 296.63936234 C205.18693299 296.62887344 206.02175798 296.61838454 206.8818807 296.6075778 C210.82886012 296.65359184 212.79628951 296.85724981 216.23357868 298.9785881 C218.8138662 301.74641169 219.24055099 303.36342546 219.24055099 307.13142776 C217.11011621 311.69664516 217.11011621 311.69664516 214.24055099 313.13142776 C211.33599781 313.23616931 208.4550595 313.27922135 205.54996872 313.27859879 C204.18379864 313.28411382 204.18379864 313.28411382 202.79002917 313.28974026 C199.71933162 313.30080742 196.64866788 313.30462609 193.57795334 313.30842972 C191.38376889 313.31469215 189.1895855 313.32133875 186.99540329 313.32834244 C181.01997222 313.34577431 175.04454916 313.35631047 169.06909895 313.36454797 C165.33724293 313.36969418 161.60538941 313.37577013 157.87353516 313.3820591 C146.87163551 313.4000245 135.86974048 313.41440173 124.86782876 313.4222355 C122.8538859 313.42367399 120.83994305 313.42512537 118.82600021 313.42659378 C117.82599788 313.42731939 117.82599788 313.42731939 116.80579348 313.42805966 C106.01217283 313.43635553 95.21866317 313.46168363 84.42509095 313.49417446 C73.3418289 313.52726498 62.25861301 313.54492587 51.17530024 313.54845208 C44.95317536 313.55080416 38.73122577 313.55978514 32.50914764 313.58491325 C26.65359588 313.60817808 20.79833501 313.61243341 14.94274902 313.60215187 C12.79494637 313.60165599 10.64712949 313.60799163 8.49937057 313.62170792 C5.56357698 313.63940572 2.62882963 313.63233063 -0.30696487 313.61917496 C-1.57732305 313.63562883 -1.57732305 313.63562883 -2.87334502 313.6524151 C-10.00255339 313.57546308 -15.06836464 311.39438507 -20.50944901 306.81892776 C-25.23869553 301.17010552 -27.87959773 295.83514974 -27.89087677 288.41645145 C-27.89471792 287.46655395 -27.89855906 286.51665645 -27.9025166 285.53797418 C-27.90165012 284.49742669 -27.90078364 283.45687919 -27.8998909 282.38479996 C-27.90286202 281.27700611 -27.90583314 280.16921226 -27.9088943 279.0278489 C-27.91759095 275.30235784 -27.91909037 271.57689888 -27.92058182 267.85139847 C-27.92520932 265.18564069 -27.93021326 262.51988585 -27.93562698 259.85412979 C-27.94920559 252.60192921 -27.95523442 245.34973415 -27.95963764 238.09752297 C-27.96240112 233.56796734 -27.9666387 229.03841383 -27.97114182 224.50885963 C-27.98333436 211.96458222 -27.99363338 199.42030651 -27.99701691 186.87602329 C-27.99723647 186.07323757 -27.99745604 185.27045186 -27.99768226 184.4433393 C-27.99790054 183.63864498 -27.99811881 182.83395066 -27.99834371 182.00487167 C-27.99878717 180.37428685 -27.99923373 178.74370203 -27.99968338 177.11311722 C-27.99990481 176.3042928 -28.00012624 175.49546838 -28.00035438 174.66213413 C-28.00430109 161.56079367 -28.0217513 148.45950888 -28.0450429 135.35818992 C-28.0687703 121.90295995 -28.08121941 108.4477579 -28.08238482 94.99250668 C-28.08330086 87.4396497 -28.08903498 79.88686523 -28.10720444 72.33402824 C-28.12262425 65.90156023 -28.12771486 59.46918714 -28.11946633 53.03670416 C-28.11556631 49.75657276 -28.1180981 46.47667186 -28.13052368 43.19655609 C-28.14322261 39.6351979 -28.13737693 36.07432862 -28.12694168 32.51297379 C-28.13499809 31.4835799 -28.14305449 30.45418602 -28.15135503 29.39359838 C-28.09159473 20.6611673 -26.60200638 13.17578032 -20.50163651 6.63533401 C-14.50705402 1.46063837 -7.7577604 0.0096824 0 0 Z " fill="#010101" transform="translate(29.759449005126953,32.86857223510742)"/>
<path d="M0 0 C4.44248004 0.2956179 7.30372219 2.32111077 10.65625 5.09375 C30.33270979 20.18699188 55.1357042 27.67681458 79.21875 32.03125 C94.41741658 34.83408125 107.42406266 37.65260085 118.15625 49.59375 C118.66414062 50.12355469 119.17203125 50.65335938 119.6953125 51.19921875 C128.90229017 62.18545898 129.6252349 79.0621564 129.15625 92.59375 C128.88917236 93.48940674 128.62209473 94.38506348 128.34692383 95.30786133 C127.44271003 99.20665605 127.30469337 101.65144389 128.15625 105.59375 C132.43837456 112.28974832 138.80379619 117.55082089 144.59375 122.90625 C146.1913222 124.43353874 147.78576235 125.96411083 149.37695312 127.49804688 C153.26817724 131.23557589 157.19951812 134.92569173 161.15625 138.59375 C161.48625 133.31375 161.81625 128.03375 162.15625 122.59375 C160.50625 122.26375 158.85625 121.93375 157.15625 121.59375 C155.37109375 120.35546875 155.37109375 120.35546875 154.15625 118.59375 C153.08109655 112.59807444 153.69547801 106.73497843 156.75390625 101.4453125 C161.19606519 95.58017786 166.45660001 91.5817809 173.67041016 90.06518555 C178.22983344 89.44855532 182.70880612 89.43129094 187.3046875 89.42578125 C188.27604645 89.42245285 189.2474054 89.41912445 190.24819946 89.41569519 C192.29729745 89.41064663 194.34640361 89.40828622 196.39550781 89.40844727 C199.51381101 89.40626222 202.63175936 89.38808827 205.75 89.36914062 C207.74739463 89.3662059 209.74479093 89.36422163 211.7421875 89.36328125 C212.66639496 89.35609573 213.59060242 89.34891022 214.54281616 89.34150696 C224.1984799 89.37522788 231.60045942 91.34941814 239.15625 97.59375 C245.2983144 104.99572504 245.46517643 112.69942658 245.45703125 121.8984375 C245.46131638 122.97699005 245.4656015 124.0555426 245.47001648 125.16677856 C245.47574179 127.44109396 245.47627335 129.71542765 245.47192383 131.98974609 C245.46876663 135.45051647 245.49223699 138.91042903 245.51757812 142.37109375 C245.51985172 144.5885406 245.52055433 146.80598972 245.51953125 149.0234375 C245.528741 150.04871552 245.53795074 151.07399353 245.54743958 152.13034058 C245.49143192 160.92213883 244.08745917 168.5391017 237.87109375 175.08984375 C232.19604692 180.06682104 226.37547681 181.12118761 218.98828125 181.80859375 C214.68103723 181.48183731 212.15300237 179.59050237 209.15625 176.59375 C209.15625 175.60375 209.15625 174.61375 209.15625 173.59375 C205.19625 173.92375 201.23625 174.25375 197.15625 174.59375 C198.30625488 175.72280762 199.45625977 176.85186523 200.64111328 178.01513672 C204.9341497 182.2353819 209.21361429 186.46917178 213.48925781 190.70703125 C215.33620866 192.5339557 217.18674509 194.35726305 219.04101562 196.17675781 C221.71671511 198.80354666 224.37894314 201.44338287 227.0390625 204.0859375 C227.86117218 204.88740204 228.68328186 205.68886658 229.53030396 206.51461792 C238.84022678 215.8209363 244.92209498 226.0789821 245.59375 239.46875 C245.23138724 249.3628287 241.81822519 258.32176262 235.15625 265.59375 C234.63160156 266.20863281 234.10695313 266.82351563 233.56640625 267.45703125 C226.88742441 274.79605365 218.00820841 278.77518966 208.15625 279.59375 C196.49793287 279.71744567 186.43654595 276.34003594 177.754776 268.39647198 C176.97468674 267.59505685 176.19459747 266.79364172 175.39086914 265.96794128 C174.4857106 265.04385468 173.58055206 264.11976807 172.64796448 263.16767883 C171.66240811 262.15112836 170.67688997 261.13454082 169.69140625 260.11791992 C168.63991683 259.04128388 167.58785362 257.96520797 166.53526306 256.88964844 C164.27575172 254.579903 162.01882194 252.26767447 159.76342773 249.95390892 C156.19137702 246.29246072 152.60446529 242.64582036 149.01367188 239.00276184 C148.40651022 238.38667264 147.79934856 237.77058343 147.17378807 237.13582486 C145.93255811 235.87649102 144.69127239 234.61721214 143.4499321 233.35798705 C135.09541014 224.88283705 126.74904165 216.40050716 118.45263672 207.8684082 C112.84793042 202.10469436 107.21691231 196.3681858 101.55405903 190.66157228 C98.56198033 187.64428403 95.58484785 184.61503066 92.63943481 181.55211449 C89.86757695 178.67017085 87.06214366 175.82565057 84.22775459 173.00522614 C83.19792312 171.96811141 82.18079411 170.91819122 81.17829704 169.85463142 C75.35562769 163.65611463 75.35562769 163.65611463 67.49085999 161.21038246 C63.96679999 161.45040522 60.62447988 161.94238495 57.15625 162.59375 C40.2939829 163.7436511 24.77027139 161.33125932 11.328125 150.265625 C-0.66150149 138.85035187 -5.0309219 125.87735493 -7.53125 109.84375 C-7.65072998 109.08336426 -7.77020996 108.32297852 -7.89331055 107.53955078 C-9.97815532 92.89883779 -10.05025502 78.04111545 -10.03125 63.28125 C-10.03064575 62.40932007 -10.0300415 61.53739014 -10.02941895 60.63903809 C-10.00650486 48.31964148 -9.79591597 36.01185164 -9.20596313 23.70571899 C-9.13168909 22.14232822 -9.06322298 20.57864974 -9.00082397 19.01473999 C-8.91088797 16.84682895 -8.7955594 14.6818406 -8.671875 12.515625 C-8.6090332 11.29456055 -8.54619141 10.07349609 -8.48144531 8.81542969 C-7.4032979 3.36855632 -5.52478955 0.85342278 0 0 Z " fill="#020101" transform="translate(264.84375,199.40625)"/>
<path d="M0 0 C1.16136803 -0.01104769 2.32273606 -0.02209538 3.51929706 -0.03347784 C4.79602993 -0.02523708 6.0727628 -0.01699631 7.38818455 -0.00850582 C8.75751465 -0.01382963 10.12683891 -0.02089436 11.49615198 -0.02955288 C15.26290908 -0.04822962 19.02927436 -0.04185817 22.79604805 -0.03139985 C26.8568145 -0.02442198 30.9174993 -0.040395 34.97824192 -0.05339718 C42.93506239 -0.07506639 50.89174 -0.0749028 58.84858029 -0.06677163 C65.31441787 -0.06047781 71.78021371 -0.06160299 78.24605083 -0.06804371 C79.16548519 -0.06894536 80.08491955 -0.06984702 81.03221555 -0.070776 C82.89990477 -0.07262715 84.76759398 -0.07448972 86.63528318 -0.07636356 C104.15939111 -0.09295228 121.68341858 -0.0842138 139.20752168 -0.06737798 C155.24741218 -0.05268087 171.28711535 -0.06730766 187.32698172 -0.09614814 C203.78804361 -0.12552602 220.24901899 -0.13651907 236.71010596 -0.12696594 C238.57132056 -0.12594336 240.43253518 -0.12494876 242.29374981 -0.12398243 C243.20955091 -0.12350604 244.125352 -0.12302965 245.06890465 -0.12253882 C251.52776057 -0.12037252 257.98653479 -0.13019028 264.44537258 -0.14475346 C272.31557277 -0.16225099 280.1855341 -0.16219671 288.05572479 -0.1394018 C292.07262191 -0.12823583 296.08909782 -0.12514982 300.10597706 -0.14370251 C303.78191633 -0.16046226 307.45706558 -0.15421878 311.13295323 -0.12948572 C313.0955037 -0.12226287 315.05809681 -0.13967239 317.02057594 -0.15789706 C318.76653961 -0.139264 318.76653961 -0.139264 320.54777527 -0.12025452 C322.05448073 -0.11984998 322.05448073 -0.11984998 323.59162468 -0.11943728 C326.3368082 0.50615788 326.3368082 0.50615788 331.3368082 5.50615788 C331.3368082 23.65615788 331.3368082 41.80615788 331.3368082 60.50615788 C218.8068082 60.50615788 106.2768082 60.50615788 -9.6631918 60.50615788 C-9.6631918 0.01146413 -9.6631918 0.01146413 0 0 Z " fill="#4E4E4E" transform="translate(28.66319179534912,49.493842124938965)"/>
<path d="M0 0 C0.99118332 -0.00525696 1.98236664 -0.01051392 3.00358582 -0.01593018 C6.26638751 -0.02908797 9.5286976 -0.02040546 12.79150391 -0.01025391 C15.06922499 -0.01227617 17.34694544 -0.01518888 19.62466431 -0.01895142 C24.39420751 -0.02336934 29.16358192 -0.01696186 33.93310547 -0.00292969 C40.03153143 0.01414221 46.12956069 0.00433001 52.22797203 -0.01364708 C56.93100951 -0.02451577 61.6339538 -0.02102406 66.33699417 -0.0132637 C68.58475416 -0.01126922 70.83252273 -0.01369441 73.08027267 -0.02070236 C76.22952241 -0.02836536 79.37814073 -0.01664364 82.52734375 0 C83.44711502 -0.00607269 84.36688629 -0.01214539 85.31452942 -0.0184021 C92.48870423 0.05144343 99.36871232 1.19378717 105.20556641 5.63818359 C110.6509375 11.21019123 112.98581884 16.81507766 113.07006836 24.56469727 C113.08932121 26.11232002 113.08932121 26.11232002 113.10896301 27.69120789 C113.11634995 28.80163956 113.12373688 29.91207123 113.13134766 31.05615234 C113.1394194 32.20553787 113.14749115 33.3549234 113.1558075 34.53913879 C113.16963527 36.97261045 113.18036326 39.40610139 113.18823242 41.83959961 C113.20542091 45.54432369 113.24931783 49.24814965 113.29345703 52.95263672 C113.30358663 55.32046872 113.3121019 57.68830829 113.31884766 60.05615234 C113.33635574 61.15646286 113.35386383 62.25677338 113.37190247 63.39042664 C113.34998714 71.23728194 112.00753602 77.4534147 107.06884766 83.69287109 C106.45396484 84.21107422 105.83908203 84.72927734 105.20556641 85.26318359 C104.60357422 85.79685547 104.00158203 86.33052734 103.38134766 86.88037109 C96.54294897 91.02420452 89.59505348 91.83160324 81.74267578 91.79223633 C80.28472343 91.8025312 80.28472343 91.8025312 78.7973175 91.81303406 C75.6103318 91.8312144 72.42384242 91.8274775 69.23681641 91.82177734 C67.00679364 91.82634286 64.77677227 91.83164953 62.54675293 91.83766174 C57.88332384 91.84657529 53.22006618 91.84418909 48.55664062 91.83422852 C42.59494845 91.82273262 36.63384806 91.84296934 30.67223358 91.87214565 C26.07041701 91.89053174 21.46874168 91.89021049 16.86689758 91.88450813 C14.66936919 91.88435526 12.47183102 91.89037127 10.27433777 91.90279961 C7.19700442 91.91775559 4.12075748 91.9069987 1.04345703 91.88989258 C0.14552933 91.89956055 -0.75239838 91.90922852 -1.67753601 91.91918945 C-9.96241801 91.82324605 -17.04096782 89.16167205 -23.10693359 83.38818359 C-31.34337861 73.66562448 -29.98433973 60.77954195 -29.83422852 48.81542969 C-29.79444546 45.26424257 -29.81360043 41.71677921 -29.83935547 38.16552734 C-29.83179743 35.88296094 -29.82084507 33.60040272 -29.80615234 31.31787109 C-29.81313644 30.26969208 -29.82012054 29.22151306 -29.82731628 28.14157104 C-29.67700104 20.21285035 -27.81670098 13.43870347 -22.35185242 7.47189331 C-15.63163576 1.16117037 -8.90435471 -0.05853243 0 0 Z " fill="#9D64FB" transform="translate(84.10693359375,207.61181640625)"/>
<path d="M0 0 C3.51953763 1.37352385 6.85889926 2.92102622 10.21240234 4.66479492 C30.95748967 15.40659601 52.40468696 21.31796423 75.25537109 25.76977539 C85.28006768 27.79967421 93.6379153 30.56869358 100 39 C106.47908219 48.98040439 105.83452141 60.55332404 105 72 C105.0105542 73.22178955 105.0211084 74.4435791 105.03198242 75.70239258 C104.21039159 81.84136738 99.43631423 85.56240036 95.21484375 89.71484375 C94.32519424 90.61119034 93.43554474 91.50753693 92.51893616 92.43104553 C90.63626503 94.31847293 88.74815842 96.19726864 86.84692383 98.06567383 C84.42084909 100.45186342 82.02757527 102.86812099 79.64244747 105.29515743 C77.35026443 107.61883332 75.03144539 109.91555067 72.71484375 112.21484375 C71.86244614 113.08141098 71.01004852 113.94797821 70.13182068 114.84080505 C65.07124003 119.76471524 62.1402181 122.06511827 55 122 C54.02562988 122.05841064 53.05125977 122.11682129 52.04736328 122.17700195 C49.07316534 122.24383487 46.09982012 122.28464588 43.125 122.3125 C41.58779297 122.35600586 41.58779297 122.35600586 40.01953125 122.40039062 C29.59539832 122.48648575 20.56370722 119.33634127 13 112 C4.68427838 102.35076626 1.77622398 93.21670438 0.328125 80.7421875 C0.20157532 79.66331268 0.07502563 78.58443787 -0.05535889 77.47286987 C-1.32556293 65.58711576 -1.38373815 53.73395147 -1.28125 41.79248047 C-1.24960804 38.07900037 -1.24020865 34.36594654 -1.234375 30.65234375 C-1.22521893 28.24999486 -1.21484766 25.84765023 -1.203125 23.4453125 C-1.19887512 22.35558136 -1.19462524 21.26585022 -1.19024658 20.14309692 C-1.12776693 13.38213049 -0.72258066 6.72258454 0 0 Z " fill="#FDD253" transform="translate(272,223)"/>
<path d="M0 0 C1.05169373 -0.0127597 2.10338745 -0.02551941 3.18695068 -0.03866577 C4.87766693 -0.04200424 4.87766693 -0.04200424 6.60253906 -0.04541016 C7.77270569 -0.05206696 8.94287231 -0.05872375 10.14849854 -0.06558228 C12.6230716 -0.07569948 15.0976719 -0.08039958 17.57226562 -0.08007812 C21.34063236 -0.08444078 25.10781774 -0.12074369 28.87597656 -0.15869141 C31.28482674 -0.16456196 33.69368246 -0.16852975 36.10253906 -0.17041016 C37.2215863 -0.18478119 38.34063354 -0.19915222 39.49359131 -0.21395874 C47.37986721 -0.16836427 53.68663866 1.11865261 59.92285156 6.14990234 C60.70015625 7.08576172 60.70015625 7.08576172 61.49316406 8.04052734 C62.02683594 8.65412109 62.56050781 9.26771484 63.11035156 9.89990234 C67.6274682 17.06175566 68.0750098 23.61606579 68.05175781 31.87646484 C68.05699966 32.97342682 68.06224152 34.07038879 68.06764221 35.20059204 C68.07404087 37.5118119 68.07275351 39.82306442 68.06420898 42.13427734 C68.05570673 45.64789553 68.08448061 49.15988219 68.11621094 52.67333984 C68.1178235 54.92854769 68.11724436 57.18375839 68.11425781 59.43896484 C68.12549179 60.4778183 68.13672577 61.51667175 68.14830017 62.58700562 C68.07462268 70.39761087 66.65490182 77.43981863 61.72363281 83.69287109 C61.09070313 84.19947266 60.45777344 84.70607422 59.80566406 85.22802734 C59.18046875 85.75267578 58.55527344 86.27732422 57.91113281 86.81787109 C50.78849575 91.39237564 44.95123264 91.73502726 36.62207031 91.68896484 C34.90080177 91.69327011 34.90080177 91.69327011 33.14476013 91.69766235 C30.72500107 91.69969816 28.30522536 91.69420227 25.88549805 91.68164062 C22.19639997 91.66559578 18.50839992 91.68149918 14.81933594 91.70068359 C12.46191166 91.69870079 10.10448806 91.69485635 7.74707031 91.68896484 C6.65100967 91.69503754 5.55494904 91.70111023 4.42567444 91.70736694 C-3.64997856 91.63378843 -10.78087203 90.62530439 -17.01016235 84.90490723 C-23.20644569 77.61224279 -24.12946367 69.88216309 -24.04589844 60.63427734 C-24.05068207 59.45136108 -24.0554657 58.26844482 -24.06039429 57.04968262 C-24.0637792 54.56207948 -24.0546763 52.07443099 -24.03369141 49.58691406 C-24.00690933 45.80090198 -24.03349135 42.01785455 -24.06542969 38.23193359 C-24.06212534 35.8035417 -24.05571861 33.37515163 -24.04589844 30.94677734 C-24.05601959 29.82670288 -24.06614075 28.70662842 -24.0765686 27.5526123 C-23.96782553 20.18309744 -22.66363791 14.39908243 -18.38183594 8.29052734 C-13.00469494 3.19019514 -7.53275236 0.06234877 0 0 Z " fill="#010000" transform="translate(442.3818359375,161.70947265625)"/>
<path d="M0 0 C1.61570641 -0.00430527 1.61570641 -0.00430527 3.26405334 -0.00869751 C5.53240487 -0.01073068 7.80077423 -0.00525336 10.0690918 0.00732422 C13.52107387 0.02337203 16.97188238 0.00745736 20.42382812 -0.01171875 C22.63672131 -0.00973588 24.84961377 -0.0058913 27.0625 0 C28.08464096 -0.00607269 29.10678192 -0.01214539 30.15989685 -0.0184021 C38.96026647 0.06699291 46.4917427 1.50987292 53.09375 7.65234375 C57.73358756 13.03937593 59.70278068 19.30017345 59.75878906 26.31542969 C59.76839661 27.29034363 59.77800415 28.26525757 59.78790283 29.26971436 C59.79215271 30.31766174 59.79640259 31.36560913 59.80078125 32.4453125 C59.80648132 33.53048157 59.8121814 34.61565063 59.8180542 35.73370361 C59.82749709 38.03014147 59.83403536 40.32659284 59.83789062 42.62304688 C59.84758118 46.12133694 59.87860584 49.61903564 59.91015625 53.1171875 C59.91668821 55.35155902 59.92193792 57.58593474 59.92578125 59.8203125 C59.93812805 60.86016296 59.95047485 61.90001343 59.9631958 62.97137451 C59.93698606 71.59578714 58.21581381 78.56554317 52.59765625 85.3984375 C47.33297268 89.34162155 42.88894989 91.50757928 36.2434082 91.57543945 C35.14829422 91.58827469 34.05318024 91.60110992 32.92488098 91.61433411 C31.74052963 91.62172104 30.55617828 91.62910797 29.3359375 91.63671875 C27.50629707 91.64882637 27.50629707 91.64882637 25.63969421 91.66117859 C23.05481386 91.6750198 20.46991522 91.68574178 17.88500977 91.69360352 C13.94316667 91.71079354 10.00216712 91.75467882 6.06054688 91.79882812 C3.54818325 91.80895713 1.03581249 91.81747258 -1.4765625 91.82421875 C-3.23790779 91.85048088 -3.23790779 91.85048088 -5.03483582 91.87727356 C-13.01954842 91.85624525 -18.4710459 90.84345984 -24.64453125 85.43359375 C-25.18335938 84.78261719 -25.7221875 84.13164063 -26.27734375 83.4609375 C-26.83164062 82.81253906 -27.3859375 82.16414063 -27.95703125 81.49609375 C-30.78430472 77.39272658 -31.65358653 73.76198546 -31.69287109 68.81713867 C-31.7056308 67.72217575 -31.7183905 66.62721283 -31.73153687 65.49906921 C-31.73376251 64.32504044 -31.73598816 63.15101166 -31.73828125 61.94140625 C-31.74493805 60.72447586 -31.75159485 59.50754547 -31.75845337 58.2537384 C-31.76857128 55.68081166 -31.77327066 53.10785872 -31.77294922 50.53491211 C-31.77731617 46.61072211 -31.81363051 42.68766252 -31.8515625 38.76367188 C-31.85743212 36.2604205 -31.86140054 33.7571638 -31.86328125 31.25390625 C-31.87765228 30.08595016 -31.89202332 28.91799408 -31.90682983 27.71464539 C-31.86257192 19.77100196 -30.78676469 14.41565984 -25.54296875 8.19140625 C-24.9190625 7.66160156 -24.29515625 7.13179687 -23.65234375 6.5859375 C-23.03875 6.04324219 -22.42515625 5.50054687 -21.79296875 4.94140625 C-14.72446501 0.37921838 -8.19091884 -0.0485673 0 0 Z " fill="#010001" transform="translate(450.40234375,33.6015625)"/>
<path d="M0 0 C5.99838707 4.97578852 11.50642171 10.35202644 17.01855469 15.85742188 C18.00959266 16.84382216 19.0008243 17.8300279 19.99223328 18.8160553 C22.66593287 21.47673048 25.33637576 24.14064984 28.0058012 26.80561256 C29.67599203 28.47285977 31.34676283 30.13952367 33.01770782 31.80601501 C38.2530835 37.02774932 43.48647769 42.25145739 48.71697402 47.47807932 C54.74235699 53.49897324 60.77423956 59.51325457 66.81181598 65.52192068 C71.48988201 70.1783651 76.16216239 74.84056335 80.83009839 79.50716257 C83.61380064 82.28981823 86.39986538 85.07000468 89.19197845 87.84422302 C91.81534455 90.45109757 94.43144108 93.06505476 97.04218483 95.68456841 C98.45473918 97.09825827 99.87471016 98.50452533 101.29490662 99.91053772 C102.13874405 100.75994431 102.98258148 101.60935089 103.85198975 102.48449707 C104.58494137 103.21598213 105.31789299 103.94746719 106.07305527 104.70111847 C110.75145481 110.28253766 111.49024763 115.04789244 111.28125 122.1015625 C110.60269388 129.09446033 107.05998774 134.34342814 102 139 C96.74507023 142.99703831 91.59328929 143.46094251 85.125 143.53125 C75.62248753 141.91582288 69.84625224 135.39969054 63.36132812 128.81542969 C62.31668649 127.76965814 61.27116005 126.7247698 60.224823 125.68069458 C57.40231252 122.85932655 54.5922617 120.02584248 51.7843647 117.18994045 C48.84208558 114.22256925 45.88839086 111.26660481 42.93591309 108.30938721 C37.35363893 102.71470618 31.78163538 97.109912 26.2132926 91.50136876 C19.87050485 85.11379201 13.51628558 78.73763907 7.16110325 72.36239767 C-5.90531522 59.25422674 -18.95738303 46.13185147 -32 33 C-31.06518608 31.89853154 -30.12878502 30.79840998 -29.19174194 29.69883728 C-28.67045904 29.08605895 -28.14917614 28.47328062 -27.61209679 27.84193325 C-25.10665047 24.97928572 -22.42840608 22.30481776 -19.7265625 19.62890625 C-19.15795502 19.06171371 -18.58934753 18.49452118 -18.00350952 17.91014099 C-16.21303764 16.12520087 -14.41909516 14.34379744 -12.625 12.5625 C-11.39950677 11.34203061 -10.17424428 10.12132947 -8.94921875 8.90039062 C-5.96880226 5.93091244 -2.98527106 2.96459743 0 0 Z " fill="#9E65FC" transform="translate(382,319)"/>
<path d="M0 0 C0.97135895 -0.0033284 1.9427179 -0.0066568 2.94351196 -0.01008606 C4.99260995 -0.01513462 7.04171611 -0.01749503 9.09082031 -0.01733398 C12.20912351 -0.01951903 15.32707186 -0.03769298 18.4453125 -0.05664062 C20.44270713 -0.05957535 22.44010343 -0.06155962 24.4375 -0.0625 C25.82381119 -0.07327827 25.82381119 -0.07327827 27.23812866 -0.08427429 C36.8937924 -0.05055337 44.29577192 1.92363689 51.8515625 8.16796875 C57.9936269 15.56994379 58.16048893 23.27364533 58.15234375 32.47265625 C58.15662888 33.5512088 58.160914 34.62976135 58.16532898 35.74099731 C58.17105429 38.01531271 58.17158585 40.2896464 58.16723633 42.56396484 C58.16407913 46.02473522 58.18754949 49.48464778 58.21289062 52.9453125 C58.21516422 55.16275935 58.21586683 57.38020847 58.21484375 59.59765625 C58.2240535 60.62293427 58.23326324 61.64821228 58.24275208 62.70455933 C58.18674442 71.49635758 56.78277167 79.11332045 50.56640625 85.6640625 C44.89135942 90.64103979 39.07078931 91.69540636 31.68359375 92.3828125 C27.37634973 92.05605606 24.84831487 90.16472112 21.8515625 87.16796875 C21.8515625 86.17796875 21.8515625 85.18796875 21.8515625 84.16796875 C20.96525146 84.33981689 20.07894043 84.51166504 19.16577148 84.6887207 C12.74142181 85.3815632 8.00498835 85.35443105 2.61376953 81.47412109 C-1.14478662 78.39799178 -4.57675455 75.02819162 -7.9519043 71.53979492 C-10.07930489 69.36225767 -12.28162037 67.29086616 -14.50585938 65.21289062 C-21.04438834 58.80763463 -25.85703903 53.6803839 -26.17030334 44.19636536 C-26.05491286 40.46384525 -25.69921694 36.86243169 -25.1484375 33.16796875 C-25.93661865 33.0285083 -26.7247998 32.88904785 -27.53686523 32.74536133 C-30.47502556 32.09576339 -31.45228282 31.62766574 -33.1484375 29.16796875 C-34.22359095 23.17229319 -33.60920949 17.30919718 -30.55078125 12.01953125 C-26.10862231 6.15439661 -20.84808749 2.15599965 -13.63427734 0.6394043 C-9.07485406 0.02277407 -4.59588138 0.00550969 0 0 Z " fill="#FED353" transform="translate(452.1484375,288.83203125)"/>
<path d="M0 0 C0.99118332 -0.00525696 1.98236664 -0.01051392 3.00358582 -0.01593018 C6.26638751 -0.02908797 9.5286976 -0.02040546 12.79150391 -0.01025391 C15.06922499 -0.01227617 17.34694544 -0.01518888 19.62466431 -0.01895142 C24.39420751 -0.02336934 29.16358192 -0.01696186 33.93310547 -0.00292969 C40.03153143 0.01414221 46.12956069 0.00433001 52.22797203 -0.01364708 C56.93100951 -0.02451577 61.6339538 -0.02102406 66.33699417 -0.0132637 C68.58475416 -0.01126922 70.83252273 -0.01369441 73.08027267 -0.02070236 C76.22952241 -0.02836536 79.37814073 -0.01664364 82.52734375 0 C83.44711502 -0.00607269 84.36688629 -0.01214539 85.31452942 -0.0184021 C92.48870423 0.05144343 99.36871232 1.19378717 105.20556641 5.63818359 C110.6509375 11.21019123 112.98581884 16.81507766 113.07006836 24.56469727 C113.08932121 26.11232002 113.08932121 26.11232002 113.10896301 27.69120789 C113.11634995 28.80163956 113.12373688 29.91207123 113.13134766 31.05615234 C113.1394194 32.20553787 113.14749115 33.3549234 113.1558075 34.53913879 C113.16963527 36.97261045 113.18036326 39.40610139 113.18823242 41.83959961 C113.20542091 45.54432369 113.24931783 49.24814965 113.29345703 52.95263672 C113.30358663 55.32046872 113.3121019 57.68830829 113.31884766 60.05615234 C113.33635574 61.15646286 113.35386383 62.25677338 113.37190247 63.39042664 C113.34998714 71.23728194 112.00753602 77.4534147 107.06884766 83.69287109 C106.45396484 84.21107422 105.83908203 84.72927734 105.20556641 85.26318359 C104.60357422 85.79685547 104.00158203 86.33052734 103.38134766 86.88037109 C96.54294897 91.02420452 89.59505348 91.83160324 81.74267578 91.79223633 C80.28472343 91.8025312 80.28472343 91.8025312 78.7973175 91.81303406 C75.6103318 91.8312144 72.42384242 91.8274775 69.23681641 91.82177734 C67.00679364 91.82634286 64.77677227 91.83164953 62.54675293 91.83766174 C57.88332384 91.84657529 53.22006618 91.84418909 48.55664062 91.83422852 C42.59494845 91.82273262 36.63384806 91.84296934 30.67223358 91.87214565 C26.07041701 91.89053174 21.46874168 91.89021049 16.86689758 91.88450813 C14.66936919 91.88435526 12.47183102 91.89037127 10.27433777 91.90279961 C7.19700442 91.91775559 4.12075748 91.9069987 1.04345703 91.88989258 C0.14552933 91.89956055 -0.75239838 91.90922852 -1.67753601 91.91918945 C-9.96241801 91.82324605 -17.04096782 89.16167205 -23.10693359 83.38818359 C-31.34337861 73.66562448 -29.98433973 60.77954195 -29.83422852 48.81542969 C-29.79444546 45.26424257 -29.81360043 41.71677921 -29.83935547 38.16552734 C-29.83179743 35.88296094 -29.82084507 33.60040272 -29.80615234 31.31787109 C-29.81313644 30.26969208 -29.82012054 29.22151306 -29.82731628 28.14157104 C-29.67700104 20.21285035 -27.81670098 13.43870347 -22.35185242 7.47189331 C-15.63163576 1.16117037 -8.90435471 -0.05853243 0 0 Z M-13.10693359 22.38818359 C-13.83493558 24.83004254 -13.83493558 24.83004254 -13.73803711 27.30444336 C-13.75057022 28.22882706 -13.76310333 29.15321075 -13.77601624 30.10560608 C-13.76275803 31.08702072 -13.74949982 32.06843536 -13.73583984 33.07958984 C-13.7382518 34.1024559 -13.74066376 35.12532196 -13.7431488 36.17918396 C-13.74217196 38.33507171 -13.72881748 40.49098504 -13.70385742 42.64672852 C-13.66950765 45.94357544 -13.68321848 49.23774672 -13.70263672 52.53466797 C-13.69573906 54.63298665 -13.68606741 56.73129843 -13.67333984 58.82958984 C-13.67829971 59.81302872 -13.68325958 60.79646759 -13.68836975 61.80970764 C-13.6132185 66.18140758 -13.53104669 68.70055128 -11.1965332 72.4855957 C-7.14763233 76.17213437 -3.18227331 75.54284344 2.03686523 75.54931641 C2.98497574 75.55428131 3.93308624 75.55924622 4.90992737 75.56436157 C8.0566581 75.57900536 11.2033384 75.58578911 14.35009766 75.59130859 C16.53244529 75.5970585 18.71479291 75.60281625 20.8971405 75.60858154 C25.4778975 75.61909804 30.05863692 75.62493637 34.6394043 75.62841797 C40.51076906 75.63390209 46.38190185 75.65792578 52.25319386 75.68638992 C56.76304301 75.70500914 61.27283622 75.71022154 65.78272057 75.71175385 C67.94727534 75.71478284 70.11182907 75.72281964 72.27634621 75.73593903 C75.30477179 75.75298327 78.33262997 75.75112303 81.36108398 75.74462891 C82.70396484 75.75845108 82.70396484 75.75845108 84.07397461 75.77255249 C88.82502072 75.7406188 92.05332298 75.51722311 95.89306641 72.38818359 C97.11304819 69.94822002 97.03290958 68.34637211 97.05419922 65.61889648 C97.06380676 64.62769302 97.07341431 63.63648956 97.08331299 62.61524963 C97.08756287 61.5412944 97.09181274 60.46733917 97.09619141 59.36083984 C97.10189148 58.26098251 97.10759155 57.16112518 97.11346436 56.02793884 C97.12292197 53.69856735 97.12945135 51.36918243 97.13330078 49.03979492 C97.14301701 45.46883961 97.17403816 41.89845711 97.20556641 38.32763672 C97.21209517 36.06787452 97.21734614 33.8081082 97.22119141 31.54833984 C97.23971161 29.94044334 97.23971161 29.94044334 97.25860596 28.30006409 C97.25560486 27.30570847 97.25260376 26.31135284 97.24951172 25.28686523 C97.25315735 24.41131485 97.25680298 23.53576447 97.26055908 22.63368225 C96.81133071 19.88875218 96.09050696 19.04604992 93.89306641 17.38818359 C91.18916128 16.48688188 89.58725969 16.25405247 86.80752563 16.22755432 C85.97762619 16.2175087 85.14772675 16.20746307 84.29267883 16.19711304 C83.38559677 16.19128204 82.47851471 16.18545105 81.54394531 16.17944336 C80.58593521 16.16965958 79.62792511 16.15987579 78.6408844 16.14979553 C75.46714672 16.11985326 72.29345103 16.09846225 69.11962891 16.07958984 C68.03639721 16.07301802 66.95316551 16.06644619 65.83710861 16.05967522 C60.10610001 16.02709068 54.37510997 16.00263458 48.64404297 15.9831543 C43.89669876 15.9653203 39.14994619 15.93046462 34.40283203 15.88061523 C28.67402336 15.82052552 22.94576456 15.78969439 17.21665573 15.77998161 C15.03251117 15.77140884 12.84838201 15.75254624 10.66441727 15.72323799 C7.60928096 15.68443809 4.55629962 15.68327383 1.50097656 15.69116211 C0.59794296 15.6711615 -0.30509064 15.65116089 -1.23548889 15.6305542 C-7.54767545 15.7037823 -9.84465504 16.89701125 -13.10693359 22.38818359 Z " fill="#030303" transform="translate(84.10693359375,207.61181640625)"/>
<path d="M0 0 C1.00067001 -0.00004028 2.00134003 -0.00008057 3.03233337 -0.00012207 C5.14116724 0.00522422 7.2500012 0.02276862 9.35864258 0.05175781 C12.58281423 0.09365865 15.80489845 0.09281936 19.02929688 0.0859375 C21.08204573 0.09642915 23.13478386 0.10936711 25.1875 0.125 C26.14906509 0.12520142 27.11063019 0.12540283 28.10133362 0.12561035 C33.01306384 0.21233234 36.58554267 0.31134308 40.52734375 3.59375 C41.73248429 6.00403107 41.67330553 7.56267208 41.7043457 10.25537109 C41.72359856 11.70730362 41.72359856 11.70730362 41.74324036 13.18856812 C41.75062729 14.23751251 41.75801422 15.28645691 41.765625 16.3671875 C41.77369675 17.44247711 41.78176849 18.51776672 41.79008484 19.62564087 C41.80393118 21.90373112 41.81465087 24.18184216 41.82250977 26.45996094 C41.83973958 29.94766376 41.88362373 33.43442304 41.92773438 36.921875 C41.93785954 39.13280551 41.94637619 41.3437441 41.953125 43.5546875 C41.97063309 44.59958344 41.98814117 45.64447937 42.00617981 46.72103882 C41.98443562 53.96218976 41.98443562 53.96218976 39.62573242 57.22119141 C36.54130662 59.23871809 34.81053027 59.72566237 31.15698242 59.77075195 C30.25231735 59.78358719 29.34765228 59.79642242 28.41557312 59.80964661 C27.43538712 59.81703354 26.45520111 59.82442047 25.4453125 59.83203125 C23.93581779 59.84413887 23.93581779 59.84413887 22.39582825 59.85649109 C20.26317064 59.87033717 18.13049081 59.88105697 15.99780273 59.88891602 C12.73834155 59.90612593 9.47989528 59.95000753 6.22070312 59.99414062 C4.14974705 60.00426767 2.07878234 60.01278374 0.0078125 60.01953125 C-0.96630081 60.03703934 -1.94041412 60.05454742 -2.94404602 60.07258606 C-7.31251681 60.05860514 -9.77690913 60.02156829 -13.56518555 57.69213867 C-16.30523943 54.67783391 -16.60563322 53.01579233 -16.68139648 49.03979492 C-16.7006871 48.09508835 -16.71997772 47.15038177 -16.73985291 46.17704773 C-16.79752126 41.85464219 -16.8468648 37.5324042 -16.87768555 33.2097168 C-16.89928327 30.92928948 -16.93340669 28.64894545 -16.98022461 26.36889648 C-17.04710336 23.08279361 -17.07466483 19.79840547 -17.09375 16.51171875 C-17.12158066 15.49385788 -17.14941132 14.47599701 -17.17808533 13.42729187 C-17.16419627 8.65079225 -17.03581229 6.33664773 -14.08837891 2.44848633 C-9.76689868 -0.38532279 -4.9999725 -0.08543239 0 0 Z " fill="#FB6253" transform="translate(451.47265625,177.40625)"/>
<path d="M0 0 C1.60656715 -0.00361794 1.60656715 -0.00361794 3.24559021 -0.00730896 C5.50580556 -0.00633097 7.766045 0.00705095 10.02612305 0.03198242 C13.48764236 0.06632241 16.94661331 0.05262954 20.40820312 0.03320312 C22.60547963 0.04010068 24.80274954 0.04977224 27 0.0625 C28.03548477 0.05754013 29.07096954 0.05258026 30.13783264 0.04747009 C34.07270185 0.11207245 37.05233956 0.18041081 40.5859375 1.97875977 C42.81362083 6.35946674 42.48204698 10.7568337 42.4296875 15.59765625 C42.43114273 16.67011597 42.43259796 17.74257568 42.43409729 18.84753418 C42.43243819 21.1137158 42.42087583 23.37990868 42.40014648 25.64599609 C42.37120102 29.11604645 42.37953627 32.58456846 42.39257812 36.0546875 C42.38634045 38.25651785 42.37794928 40.45834337 42.3671875 42.66015625 C42.37012314 43.69877808 42.37305878 44.7373999 42.37608337 45.80749512 C42.35705711 47.25920105 42.35705711 47.25920105 42.33764648 48.74023438 C42.3322435 49.58976685 42.32684052 50.43929932 42.3212738 51.3145752 C41.84292333 54.17018085 40.91219365 55.53756991 38.93359375 57.62890625 C36.09908148 58.57374367 34.28397202 58.77042652 31.34204102 58.8059082 C29.95028404 58.82516106 29.95028404 58.82516106 28.53041077 58.84480286 C27.03035744 58.85588326 27.03035744 58.85588326 25.5 58.8671875 C24.47051743 58.87525925 23.44103485 58.88333099 22.38035583 58.89164734 C20.2023995 58.90547829 18.02442159 58.91620486 15.84643555 58.92407227 C12.5124434 58.94132166 9.17943357 58.98522141 5.84570312 59.02929688 C3.73047604 59.03942074 1.61524054 59.0479378 -0.5 59.0546875 C-1.49801132 59.07219559 -2.49602264 59.08970367 -3.52427673 59.10774231 C-10.44193868 59.08600407 -10.44193868 59.08600407 -13.66430664 56.72729492 C-15.73987948 53.62098314 -16.20089471 51.86855894 -16.25927734 48.16674805 C-16.27534027 47.24206223 -16.2914032 46.3173764 -16.30795288 45.3646698 C-16.35238669 41.13382678 -16.39346693 36.9031409 -16.41650391 32.67211914 C-16.4330664 30.44024226 -16.46036006 28.20841848 -16.49853516 25.97680664 C-16.55328219 22.76029927 -16.57517496 19.54503545 -16.58984375 16.328125 C-16.61251312 15.33213791 -16.6351825 14.33615082 -16.65853882 13.3099823 C-16.64519891 8.93762842 -16.47216007 6.31859628 -14.2253418 2.49951172 C-9.53315498 -0.27902877 -5.36205537 -0.06878952 0 0 Z " fill="#9E65FC" transform="translate(451.06640625,50.37109375)"/>
<path d="M0 0 C0.97135895 -0.0033284 1.9427179 -0.0066568 2.94351196 -0.01008606 C4.99260995 -0.01513462 7.04171611 -0.01749503 9.09082031 -0.01733398 C12.20912351 -0.01951903 15.32707186 -0.03769298 18.4453125 -0.05664062 C20.44270713 -0.05957535 22.44010343 -0.06155962 24.4375 -0.0625 C25.82381119 -0.07327827 25.82381119 -0.07327827 27.23812866 -0.08427429 C36.8937924 -0.05055337 44.29577192 1.92363689 51.8515625 8.16796875 C57.9936269 15.56994379 58.16048893 23.27364533 58.15234375 32.47265625 C58.15662888 33.5512088 58.160914 34.62976135 58.16532898 35.74099731 C58.17105429 38.01531271 58.17158585 40.2896464 58.16723633 42.56396484 C58.16407913 46.02473522 58.18754949 49.48464778 58.21289062 52.9453125 C58.21516422 55.16275935 58.21586683 57.38020847 58.21484375 59.59765625 C58.2240535 60.62293427 58.23326324 61.64821228 58.24275208 62.70455933 C58.18674442 71.49635758 56.78277167 79.11332045 50.56640625 85.6640625 C44.89135942 90.64103979 39.07078931 91.69540636 31.68359375 92.3828125 C27.37634973 92.05605606 24.84831487 90.16472112 21.8515625 87.16796875 C21.20886412 83.12815034 21.70649529 81.41598688 23.7890625 77.85546875 C26.15800225 75.24286663 27.93736137 74.76732528 31.4140625 74.48046875 C32.15785156 74.47660156 32.90164063 74.47273438 33.66796875 74.46875 C36.53620581 74.07366189 37.75194832 73.14631875 39.8515625 71.16796875 C40.45560483 68.8820531 40.45560483 68.8820531 40.36914062 66.28515625 C40.38174927 65.29402832 40.39435791 64.30290039 40.40734863 63.28173828 C40.39925171 62.21294434 40.39115479 61.14415039 40.3828125 60.04296875 C40.3866394 58.94452637 40.39046631 57.84608398 40.39440918 56.71435547 C40.39713232 54.3909412 40.38974319 52.06749649 40.37304688 49.74414062 C40.35164438 46.18159838 40.37283649 42.62107304 40.3984375 39.05859375 C40.3957943 36.80338095 40.39066948 34.54816941 40.3828125 32.29296875 C40.39090942 31.2241748 40.39900635 30.15538086 40.40734863 29.05419922 C40.39473999 28.06307129 40.38213135 27.07194336 40.36914062 26.05078125 C40.36595825 25.17824707 40.36277588 24.30571289 40.35949707 23.40673828 C40.02683819 21.03841478 40.02683819 21.03841478 38.11901855 19.38804626 C35.53736437 17.99890436 33.97208848 17.78286683 31.0546875 17.76391602 C30.1069043 17.75123184 29.15912109 17.73854767 28.18261719 17.72547913 C27.16586914 17.72841476 26.14912109 17.7313504 25.1015625 17.734375 C24.05129883 17.72913315 23.00103516 17.7238913 21.91894531 17.7184906 C19.69987878 17.71207122 17.48077822 17.71340629 15.26171875 17.72192383 C11.86396845 17.73043766 8.46789687 17.7016635 5.0703125 17.66992188 C2.914063 17.66830989 0.75781053 17.66888733 -1.3984375 17.671875 C-2.41518555 17.66064102 -3.43193359 17.64940704 -4.47949219 17.63783264 C-10.00140727 17.60799716 -10.00140727 17.60799716 -14.77954102 20.07177734 C-16.19345609 22.23690573 -16.72849337 23.68918787 -17.0859375 26.23046875 C-17.74676178 29.31623084 -17.93380168 29.97718136 -20.3984375 32.16796875 C-23.63064386 33.34331652 -25.73756729 33.6759707 -29.1484375 33.16796875 C-31.5234375 31.85546875 -31.5234375 31.85546875 -33.1484375 29.16796875 C-34.10877591 23.06296026 -33.66882032 17.41229633 -30.55078125 12.01953125 C-26.10862231 6.15439661 -20.84808749 2.15599965 -13.63427734 0.6394043 C-9.07485406 0.02277407 -4.59588138 0.00550969 0 0 Z " fill="#020100" transform="translate(452.1484375,288.83203125)"/>
<path d="M0 0 C0.88158783 -0.00671722 1.76317566 -0.01343445 2.67147827 -0.02035522 C5.59036876 -0.03937813 8.50902987 -0.04326146 11.42797852 -0.04541016 C13.45435176 -0.05183465 15.48072407 -0.05856275 17.50709534 -0.06558228 C21.75654247 -0.07756547 26.00590825 -0.08126198 30.25537109 -0.08007812 C35.70430069 -0.07987478 41.15270965 -0.10718886 46.60151577 -0.14162254 C50.78707787 -0.16384332 54.97251368 -0.16791716 59.15812874 -0.16685867 C61.16721455 -0.16922145 63.17630348 -0.17808286 65.18533134 -0.19352341 C67.9937186 -0.21308766 70.80097002 -0.20738333 73.609375 -0.1953125 C74.44119797 -0.20655151 75.27302094 -0.21779053 76.13005066 -0.22937012 C79.79398025 -0.18928852 81.91716119 -0.05247289 84.88148499 2.19589233 C86.48222626 4.4493833 86.93722986 5.55383818 86.93188477 8.29052734 C86.95379883 8.95052734 86.97571289 9.61052734 86.99829102 10.29052734 C85.98501053 13.51288516 84.18887771 14.49903545 81.36938477 16.29052734 C78.35885336 16.67800673 75.71779784 16.83829498 72.71118164 16.80810547 C71.85041519 16.81511475 70.98964874 16.82212402 70.10279846 16.8293457 C67.26424676 16.84691669 64.42669619 16.83530623 61.58813477 16.82177734 C59.61185515 16.82447252 57.63557683 16.82835515 55.65930176 16.83337402 C51.5200537 16.83926786 47.38115121 16.83070973 43.24194336 16.81201172 C37.93883507 16.78922234 32.63653654 16.80234602 27.33345795 16.82630157 C23.25333567 16.84076259 19.17340506 16.83615215 15.09327698 16.82579041 C13.13806563 16.82312396 11.18283683 16.82638997 9.22764587 16.83570862 C6.493825 16.84587914 3.7613115 16.83036636 1.02758789 16.80810547 C0.22120377 16.81620239 -0.58518036 16.82429932 -1.41600037 16.8326416 C-5.15431809 16.77630869 -7.40538612 16.42984252 -10.61315918 14.44567871 C-13.1771154 11.70672748 -13.55305217 10.01355443 -13.63061523 6.29052734 C-11.3999243 -0.40154547 -6.11043833 -0.0066419 0 0 Z " fill="#020203" transform="translate(68.630615234375,161.70947265625)"/>
<path d="M0 0 C0.90234375 -0.01095703 1.8046875 -0.02191406 2.734375 -0.03320312 C9.25539909 0.03914552 9.25539909 0.03914552 12.58984375 2.3828125 C14.70278434 5.64879823 14.60047905 7.75946603 14 11.5625 C11.98426103 14.30470331 10.38996681 16.23229247 6.98266602 17.04174805 C4.63528257 17.23605852 2.3543669 17.24483036 0 17.1875 C-1.19109375 17.21650391 -1.19109375 17.21650391 -2.40625 17.24609375 C-6.72793655 17.2100797 -8.51187166 16.9416655 -12.02734375 14.2109375 C-14 11.5625 -14 11.5625 -14.5625 8.5625 C-12.93770391 -0.10307912 -7.5475581 -0.19947118 0 0 Z " fill="#FA6354" transform="translate(263,71.4375)"/>
<path d="M0 0 C1.2694043 -0.03577148 1.2694043 -0.03577148 2.56445312 -0.07226562 C7.0128812 -0.06181513 8.99782333 0.14166279 12.66015625 2.87109375 C14.5625 5.5625 14.5625 5.5625 14.5625 9.1875 C13.61706241 12.37835187 13.19878553 13.66437442 10.5625 15.5625 C7.32124994 17.18312503 3.80800138 16.83041352 0.25 16.875 C-0.50990234 16.90400391 -1.26980469 16.93300781 -2.05273438 16.96289062 C-5.96378367 17.00706407 -7.99895599 16.82050057 -11.4453125 14.79296875 C-13.54045296 12.44723306 -14.10227564 11.64280154 -14 8.5625 C-14.00128906 7.9025 -14.00257813 7.2425 -14.00390625 6.5625 C-12.00152319 -0.50798363 -6.16348994 -0.07943846 0 0 Z " fill="#AACB37" transform="translate(303.4375,71.4375)"/>
</svg>
