<?xml version="1.0" encoding="utf-8"?>
<!-- Generator: Adobe Illustrator 22.0.1, SVG Export Plug-In . SVG Version: 6.00 Build 0)  -->
<svg version="1.1" id="Layer_1" xmlns="http://www.w3.org/2000/svg" xmlns:xlink="http://www.w3.org/1999/xlink" x="0px" y="0px"
	 viewBox="0 0 53 53" style="enable-background:new 0 0 53 53;" xml:space="preserve">
<style type="text/css">
	.st0{fill:#FFFFFF;}
	.st1{fill:#283E42;}
	.st2{fill:#5AE4A7;}
	.st3{fill:#4BC98C;}
	.st4{fill:#DDDDDD;}
	.st5{fill:#FFDDAB;}
	.st6{fill:#C9C9C9;}
	.st7{fill:#DBDBDB;}
	.st8{fill:#F9CE95;}
	.st9{fill:#22373A;}
</style>
<g>
	<g>
		<g>
			<g>
				<g>
					<path d="M45.3753052,2.5467608H32.7925415v47.9066772h12.5827637c2.6900024,0,4.8699951-2.1799927,4.8699951-4.8800049
						V7.4267659C50.2453003,4.7267537,48.0653076,2.5467608,45.3753052,2.5467608z"/>
					<path d="M45.375,50.9533691H32.7929688c-0.2763672,0-0.5-0.2236328-0.5-0.5V2.5466309c0-0.2763672,0.2236328-0.5,0.5-0.5
						H45.375c2.9609375,0,5.3701172,2.4135742,5.3701172,5.3803711v38.1464844
						C50.7451172,48.5397949,48.3359375,50.9533691,45.375,50.9533691z M33.2929688,49.9533691H45.375
						c2.4101563,0,4.3701172-1.9648438,4.3701172-4.3798828V7.427002c0-2.4155273-1.9599609-4.3803711-4.3701172-4.3803711
						H33.2929688V49.9533691z"/>
				</g>
				<g>
					<path class="st0" d="M47.2453117,7.4267912v38.1466446c0,2.7000122-2.1799927,4.8800049-4.8699951,4.8800049H7.6352658
						c-2.6999512,0-4.8799438-2.1799927-4.8799438-4.8800049V7.4267912c0-2.7000122,2.1799924-4.8800049,4.8799438-4.8800049
						h34.7400513C45.0653191,2.5467861,47.2453117,4.726779,47.2453117,7.4267912z"/>
					<path d="M42.375,50.9533691H7.6357422c-2.9667969,0-5.3808594-2.4135742-5.3808594-5.3798828V7.427002
						c0-2.9667969,2.4140625-5.3803711,5.3808594-5.3803711H42.375c2.9609375,0,5.3701172,2.4135742,5.3701172,5.3803711v38.1464844
						C47.7451172,48.5397949,45.3359375,50.9533691,42.375,50.9533691z M7.6357422,3.0466309
						c-2.4160156,0-4.3808594,1.9648438-4.3808594,4.3803711v38.1464844c0,2.4150391,1.9648438,4.3798828,4.3808594,4.3798828
						H42.375c2.4101563,0,4.3701172-1.9648438,4.3701172-4.3798828V7.427002c0-2.4155273-1.9599609-4.3803711-4.3701172-4.3803711
						H7.6357422z"/>
				</g>
				<g>
					<path class="st2" d="M6.7525635,22.4875565v-6.6199951c0-0.6600342,0.5299683-1.1900024,1.1900024-1.1900024h7.5799561
						c0.6600342,0,1.1900024,0.5299683,1.1900024,1.1900024v6.6199951c0,0.6599731-0.5299683,1.1900024-1.1900024,1.1900024
						H7.9425659C7.2825317,23.6775589,6.7525635,23.1475296,6.7525635,22.4875565z"/>
					<path d="M15.5224609,24.1774902H7.9423828c-0.9316406,0-1.6894531-0.7583008-1.6894531-1.6899414v-6.6201172
						c0-0.9316406,0.7578125-1.6899414,1.6894531-1.6899414h7.5800781c0.9316406,0,1.6904297,0.7583008,1.6904297,1.6899414
						v6.6201172C17.2128906,23.4191895,16.4541016,24.1774902,15.5224609,24.1774902z M7.9423828,15.1774902
						c-0.3867188,0-0.6894531,0.3032227-0.6894531,0.6899414v6.6201172c0,0.3867188,0.3027344,0.6899414,0.6894531,0.6899414
						h7.5800781c0.3867188,0,0.6904297-0.3032227,0.6904297-0.6899414v-6.6201172
						c0-0.3803711-0.3095703-0.6899414-0.6904297-0.6899414H7.9423828z"/>
				</g>
				<g>
					<path class="st4" d="M29.9725342,15.8675613v6.6199951c0,0.6599731-0.5299683,1.1900024-1.1799927,1.1900024h-7.5800171
						c-0.6599731,0-1.1900024-0.5300293-1.1900024-1.1900024v-6.6199951c0-0.6600342,0.5300293-1.1900024,1.1900024-1.1900024
						h7.5800171C29.4425659,14.6775589,29.9725342,15.2075272,29.9725342,15.8675613z"/>
					<path d="M28.7929688,24.1774902h-7.5800781c-0.9316406,0-1.6904297-0.7583008-1.6904297-1.6899414v-6.6201172
						c0-0.9316406,0.7587891-1.6899414,1.6904297-1.6899414h7.5800781c0.9257813,0,1.6796875,0.7583008,1.6796875,1.6899414
						v6.6201172C30.4726563,23.4191895,29.71875,24.1774902,28.7929688,24.1774902z M21.2128906,15.1774902
						c-0.3808594,0-0.6904297,0.3095703-0.6904297,0.6899414v6.6201172c0,0.3867188,0.3037109,0.6899414,0.6904297,0.6899414
						h7.5800781c0.375,0,0.6796875-0.3095703,0.6796875-0.6899414v-6.6201172c0-0.3803711-0.3046875-0.6899414-0.6796875-0.6899414
						H21.2128906z"/>
				</g>
				<g>
					<path class="st2" d="M43.2425537,15.8675613v6.6199951c0,0.6599731-0.5300293,1.1900024-1.1799927,1.1900024h-7.5900269
						c-0.6499634,0-1.1799927-0.5300293-1.1799927-1.1900024v-6.6199951c0-0.6600342,0.5300293-1.1900024,1.1799927-1.1900024
						h7.5900269C42.7125244,14.6775589,43.2425537,15.2075272,43.2425537,15.8675613z"/>
					<path d="M42.0625,24.1774902h-7.5898438c-0.9257813,0-1.6796875-0.7583008-1.6796875-1.6899414v-6.6201172
						c0-0.9316406,0.7539063-1.6899414,1.6796875-1.6899414H42.0625c0.9257813,0,1.6796875,0.7583008,1.6796875,1.6899414v6.6201172
						C43.7421875,23.4191895,42.9882813,24.1774902,42.0625,24.1774902z M34.4726563,15.1774902
						c-0.375,0-0.6796875,0.3095703-0.6796875,0.6899414v6.6201172c0,0.3803711,0.3046875,0.6899414,0.6796875,0.6899414H42.0625
						c0.375,0,0.6796875-0.3095703,0.6796875-0.6899414v-6.6201172c0-0.3803711-0.3046875-0.6899414-0.6796875-0.6899414H34.4726563
						z"/>
				</g>
				<g>
					<path class="st2" d="M43.2425537,27.6875687v17.5799561c0,0.6600342-0.5300293,1.1900024-1.1799927,1.1900024H29.4725342
						c-0.6499634,0-1.1799927-0.5299683-1.1799927-1.1900024V27.6875687c0-0.6600342,0.5300293-1.1900024,1.1799927-1.1900024
						H42.062561C42.7125244,26.4975662,43.2425537,27.0275345,43.2425537,27.6875687z"/>
					<path d="M42.0625,46.9577637H29.4726563c-0.9257813,0-1.6796875-0.7583008-1.6796875-1.6904297V27.6877441
						c0-0.9316406,0.7539063-1.6899414,1.6796875-1.6899414H42.0625c0.9257813,0,1.6796875,0.7583008,1.6796875,1.6899414V45.267334
						C43.7421875,46.1994629,42.9882813,46.9577637,42.0625,46.9577637z M29.4726563,26.9978027
						c-0.375,0-0.6796875,0.3095703-0.6796875,0.6899414V45.267334c0,0.3808594,0.3046875,0.6904297,0.6796875,0.6904297H42.0625
						c0.375,0,0.6796875-0.3095703,0.6796875-0.6904297V27.6877441c0-0.3803711-0.3046875-0.6899414-0.6796875-0.6899414H29.4726563
						z"/>
				</g>
				<g>
					<path class="st1" d="M24.9725342,27.6875687v4.7999878c0,0.6599731-0.5299683,1.1900024-1.1799927,1.1900024H7.9425659
						c-0.6600342,0-1.1900024-0.5300293-1.1900024-1.1900024v-4.7999878c0-0.6600342,0.5299683-1.1900024,1.1900024-1.1900024
						h15.8499756C24.4425659,26.4975662,24.9725342,27.0275345,24.9725342,27.6875687z"/>
					<path d="M23.7929688,34.1774902H7.9423828c-0.9316406,0-1.6894531-0.7583008-1.6894531-1.6899414v-4.7998047
						c0-0.9316406,0.7578125-1.6899414,1.6894531-1.6899414h15.8505859c0.9257813,0,1.6796875,0.7583008,1.6796875,1.6899414
						v4.7998047C25.4726563,33.4191895,24.71875,34.1774902,23.7929688,34.1774902z M7.9423828,26.9978027
						c-0.3867188,0-0.6894531,0.3032227-0.6894531,0.6899414v4.7998047c0,0.3867188,0.3027344,0.6899414,0.6894531,0.6899414
						h15.8505859c0.375,0,0.6796875-0.3095703,0.6796875-0.6899414v-4.7998047c0-0.3803711-0.3046875-0.6899414-0.6796875-0.6899414
						H7.9423828z"/>
				</g>
				<g>
					<path class="st1" d="M47.2453117,7.4267912v3.4500122H2.7553222V7.4267912
						c0-2.7000122,2.1799924-4.8800049,4.8799438-4.8800049h34.7400513
						C45.0653191,2.5467861,47.2453117,4.726779,47.2453117,7.4267912z"/>
					<path d="M47.2451172,11.376709H2.7548828c-0.2763672,0-0.5-0.2236328-0.5-0.5V7.427002
						c0-2.9667969,2.4140625-5.3803711,5.3808594-5.3803711H42.375c2.9609375,0,5.3701172,2.4135742,5.3701172,5.3803711v3.449707
						C47.7451172,11.1530762,47.5214844,11.376709,47.2451172,11.376709z M3.2548828,10.376709h43.4902344V7.427002
						c0-2.4155273-1.9599609-4.3803711-4.3701172-4.3803711H7.6357422c-2.4160156,0-4.3808594,1.9648438-4.3808594,4.3803711
						V10.376709z"/>
				</g>
				<g>
					<g>
						<circle class="st0" cx="7.8330336" cy="6.7124729" r="1.1666666"/>
					</g>
					<g>
						<circle class="st0" cx="11.8747005" cy="6.7124729" r="1.1666666"/>
					</g>
					<g>
						<circle class="st0" cx="15.9163666" cy="6.7124729" r="1.1666666"/>
					</g>
					<g>
						<path d="M27.9785156,7.2126465h-2.4580078c-0.2763672,0-0.5-0.2236328-0.5-0.5s0.2236328-0.5,0.5-0.5h2.4580078
							c0.2763672,0,0.5,0.2236328,0.5,0.5S28.2548828,7.2126465,27.9785156,7.2126465z"/>
					</g>
					<g>
						<path d="M43.3330078,7.2126465h-12.5625c-0.2763672,0-0.5-0.2236328-0.5-0.5s0.2236328-0.5,0.5-0.5h12.5625
							c0.2763672,0,0.5,0.2236328,0.5,0.5S43.609375,7.2126465,43.3330078,7.2126465z"/>
					</g>
				</g>
			</g>
		</g>
	</g>
	<g>
		<g>
			<path d="M24.9726563,38.4274902H11.9179688c-0.2763672,0-0.5-0.2236328-0.5-0.5s0.2236328-0.5,0.5-0.5h13.0546875
				c0.2763672,0,0.5,0.2236328,0.5,0.5S25.2490234,38.4274902,24.9726563,38.4274902z"/>
		</g>
		<g>
			<path d="M9.8339844,38.4274902H6.7529297c-0.2763672,0-0.5-0.2236328-0.5-0.5s0.2236328-0.5,0.5-0.5h3.0810547
				c0.2763672,0,0.5,0.2236328,0.5,0.5S10.1103516,38.4274902,9.8339844,38.4274902z"/>
		</g>
		<g>
			<path d="M24.9726563,42.692627h-3.8466797c-0.2763672,0-0.5-0.2236328-0.5-0.5s0.2236328-0.5,0.5-0.5h3.8466797
				c0.2763672,0,0.5,0.2236328,0.5,0.5S25.2490234,42.692627,24.9726563,42.692627z"/>
		</g>
		<g>
			<path d="M18.8339844,42.692627H6.7529297c-0.2763672,0-0.5-0.2236328-0.5-0.5s0.2236328-0.5,0.5-0.5h12.0810547
				c0.2763672,0,0.5,0.2236328,0.5,0.5S19.1103516,42.692627,18.8339844,42.692627z"/>
		</g>
		<g>
			<path d="M18.0429688,46.9577637H6.7529297c-0.2763672,0-0.5-0.2236328-0.5-0.5s0.2236328-0.5,0.5-0.5h11.2900391
				c0.2763672,0,0.5,0.2236328,0.5,0.5S18.3193359,46.9577637,18.0429688,46.9577637z"/>
		</g>
	</g>
</g>
</svg>
