<?xml version="1.0" encoding="utf-8"?>
<!-- Generator: Adobe Illustrator 22.0.1, SVG Export Plug-In . SVG Version: 6.00 Build 0)  -->
<svg version="1.1" id="Layer_1" xmlns="http://www.w3.org/2000/svg" xmlns:xlink="http://www.w3.org/1999/xlink" x="0px" y="0px"
	 viewBox="0 0 53 53" style="enable-background:new 0 0 53 53;" xml:space="preserve">
<style type="text/css">
	.st0{fill:#FFFFFF;}
	.st1{fill:#283E42;}
	.st2{fill:#5AE4A7;}
	.st3{fill:#4BC98C;}
	.st4{fill:#DDDDDD;}
	.st5{fill:#FFDDAB;}
	.st6{fill:#C9C9C9;}
	.st7{fill:#DBDBDB;}
	.st8{fill:#F9CE95;}
	.st9{fill:#22373A;}
</style>
<g>
	<g>
		<g>
			<g>
				<g>
					<g>
						<g>
							<g>
								<g>
									<path d="M45.3764992,2.5465238H30.0420895v47.9066162h15.3344097c2.6900024,0,4.8699951-2.1799927,4.8699951-4.8800049
										V7.4265289C50.2464943,4.7265167,48.0665016,2.5465238,45.3764992,2.5465238z"/>
									<path d="M45.3764648,50.9536133H30.0424805c-0.2763672,0-0.5-0.2236328-0.5-0.5V2.5463867
										c0-0.2763672,0.2236328-0.5,0.5-0.5h15.3339844c2.9609375,0,5.3701172,2.4130859,5.3701172,5.3798828v38.1464844
										C50.746582,48.5395508,48.3374023,50.9536133,45.3764648,50.9536133z M30.5424805,49.9536133h14.8339844
										c2.4101563,0,4.3701172-1.9648438,4.3701172-4.3808594V7.4262695c0-2.4150391-1.9599609-4.3798828-4.3701172-4.3798828
										H30.5424805V49.9536133z"/>
								</g>
								<g>
									<path class="st0" d="M47.2464905,7.4265332v38.1466484c0,2.7000122-2.1799927,4.8800049-4.8699951,4.8800049H7.6364427
										c-2.6999512,0-4.8799438-2.1799927-4.8799438-4.8800049V7.4265332c0-2.7000122,2.1799927-4.8800049,4.8799438-4.8800049
										h34.7400513C45.0664978,2.5465286,47.2464905,4.726521,47.2464905,7.4265332z"/>
									<path d="M42.3764648,50.9536133H7.6362305c-2.9667969,0-5.3798828-2.4140625-5.3798828-5.3808594V7.4262695
										c0-2.9667969,2.4130859-5.3798828,5.3798828-5.3798828h34.7402344c2.9609375,0,5.3701172,2.4130859,5.3701172,5.3798828
										v38.1464844C47.746582,48.5395508,45.3374023,50.9536133,42.3764648,50.9536133z M7.6362305,3.0463867
										c-2.4150391,0-4.3798828,1.9648438-4.3798828,4.3798828v38.1464844c0,2.4160156,1.9648438,4.3808594,4.3798828,4.3808594
										h34.7402344c2.4101563,0,4.3701172-1.9648438,4.3701172-4.3808594V7.4262695
										c0-2.4150391-1.9599609-4.3798828-4.3701172-4.3798828H7.6362305z"/>
								</g>
								<g>
									<path class="st1" d="M47.2431526,7.4197159v3.4598999H22.2831001c-0.6793175,0-1.230011,0.5506945-1.230011,1.230011
										v0.039978c0,0.6793165-0.5506954,1.230011-1.230011,1.230011h-5.3839788
										c-0.3534813,0-0.6898775-0.1520758-0.9233952-0.4174414l-1.46527-1.6651173
										c-0.2335167-0.2653656-0.5699129-0.4174414-0.9233952-0.4174414H2.7531621V7.4296036
										c0-2.6951523,2.1848528-4.8800049,4.8800049-4.8800049h34.7398682
										C45.0627251,2.5495987,47.2431526,4.7300243,47.2431526,7.4197159z"/>
									<path d="M19.8227539,13.8793945h-5.3837891c-0.4970703,0-0.9707031-0.2138672-1.2988281-0.5869141l-1.4648438-1.6650391
										c-0.1386719-0.1572266-0.3388672-0.2480469-0.5478516-0.2480469H2.753418c-0.2763889,0-0.5-0.2236328-0.5-0.5V7.4291992
										c0-2.9667969,2.4130859-5.3798828,5.3798828-5.3798828h34.7392578c2.9609375,0,5.3701172,2.4091797,5.3701172,5.3701172
										v3.4599609c0,0.2763672-0.2236328,0.5-0.5,0.5H22.2827148c-0.4023438,0-0.7294922,0.328125-0.7294922,0.7304688
										C21.5532227,13.1040039,20.7768555,13.8793945,19.8227539,13.8793945z M3.253418,10.3793945h7.8740234
										c0.4970703,0,0.9697266,0.2138672,1.2988281,0.5878906l1.4648438,1.6650391
										c0.1386719,0.1572266,0.3378906,0.2470703,0.5478516,0.2470703h5.3837891
										c0.4023438,0,0.7304688-0.3271484,0.7304688-0.7294922c0-0.9941406,0.7753906-1.7705078,1.7294922-1.7705078h24.4599609
										V7.4194336c0-2.4101563-1.9599609-4.3701172-4.3701172-4.3701172H7.6333008
										c-2.4150391,0-4.3798828,1.9648438-4.3798828,4.3798828V10.3793945z"/>
								</g>
								<g>
									<g>
										<circle class="st0" cx="7.8342104" cy="6.7122154" r="1.1666666"/>
									</g>
									<g>
										<circle class="st0" cx="11.8758774" cy="6.7122154" r="1.1666666"/>
									</g>
									<g>
										<circle class="st0" cx="15.9175434" cy="6.7122154" r="1.1666666"/>
									</g>
									<g>
										<path d="M27.9799805,7.2124023h-2.4580078c-0.2763672,0-0.5-0.2236328-0.5-0.5s0.2236328-0.5,0.5-0.5h2.4580078
											c0.2763672,0,0.5,0.2236328,0.5,0.5S28.2563477,7.2124023,27.9799805,7.2124023z"/>
									</g>
									<g>
										<path d="M43.3344727,7.2124023h-12.5625c-0.2763672,0-0.5-0.2236328-0.5-0.5s0.2236328-0.5,0.5-0.5h12.5625
											c0.2763672,0,0.5,0.2236328,0.5,0.5S43.6108398,7.2124023,43.3344727,7.2124023z"/>
									</g>
								</g>
							</g>
						</g>
					</g>
				</g>
			</g>
		</g>
	</g>
	<g>
		<path class="st2" d="M42.7720337,18.0045242v11.2000122c0,1.1199951-0.9099731,2.0299683-2.0299683,2.0299683H9.2620239
			c-1.1199951,0-2.0299683-0.9099731-2.0299683-2.0299683V18.0045242c0-1.1199951,0.9099731-2.0300293,2.0299683-2.0300293
			h31.4800415C41.8620605,15.9744949,42.7720337,16.8845291,42.7720337,18.0045242z"/>
		<path d="M40.7416992,31.7348633H9.262207c-1.3955078,0-2.5302734-1.1347656-2.5302734-2.5302734V18.0043945
			c0-1.3955078,1.1347656-2.5302734,2.5302734-2.5302734h31.4794922c1.3955078,0,2.5302734,1.1347656,2.5302734,2.5302734
			v11.2001953C43.2719727,30.6000977,42.137207,31.7348633,40.7416992,31.7348633z M9.262207,16.4741211
			c-0.84375,0-1.5302734,0.6865234-1.5302734,1.5302734v11.2001953c0,0.84375,0.6865234,1.5302734,1.5302734,1.5302734h31.4794922
			c0.84375,0,1.5302734-0.6865234,1.5302734-1.5302734V18.0043945c0-0.84375-0.6865234-1.5302734-1.5302734-1.5302734H9.262207z"/>
	</g>
	<g>
		<g>
			<path class="st4" d="M22.3720703,37.3544998v7.6000366c0,0.8499756-0.6900024,1.539978-1.5400391,1.539978H8.7720337
				c-0.8499756,0-1.539978-0.6900024-1.539978-1.539978v-7.6000366c0-0.8499756,0.6900024-1.539978,1.539978-1.539978h12.0599976
				C21.6820679,35.8145218,22.3720703,36.5045242,22.3720703,37.3544998z"/>
			<path d="M20.831543,46.9946289H8.7719727c-1.125,0-2.0400391-0.9150391-2.0400391-2.0400391v-7.5996094
				c0-1.125,0.9150391-2.0400391,2.0400391-2.0400391H20.831543c1.125,0,2.0400391,0.9150391,2.0400391,2.0400391v7.5996094
				C22.871582,46.0795898,21.956543,46.9946289,20.831543,46.9946289z M8.7719727,36.3149414
				c-0.5732422,0-1.0400391,0.4667969-1.0400391,1.0400391v7.5996094c0,0.5732422,0.4667969,1.0400391,1.0400391,1.0400391
				H20.831543c0.5732422,0,1.0400391-0.4667969,1.0400391-1.0400391v-7.5996094
				c0-0.5732422-0.4667969-1.0400391-1.0400391-1.0400391H8.7719727z"/>
		</g>
		<g>
			<g>
				<path d="M15.4584961,43.9946289h-5.2255859c-0.2763672,0-0.5-0.2236328-0.5-0.5s0.2236328-0.5,0.5-0.5h5.2255859
					c0.2763672,0,0.5,0.2236328,0.5,0.5S15.7348633,43.9946289,15.4584961,43.9946289z"/>
			</g>
			<g>
				<path d="M19.3725586,43.9946289h-1.9570313c-0.2763672,0-0.5-0.2236328-0.5-0.5s0.2236328-0.5,0.5-0.5h1.9570313
					c0.2763672,0,0.5,0.2236328,0.5,0.5S19.6489258,43.9946289,19.3725586,43.9946289z"/>
			</g>
			<g>
				<path d="M19.3725586,39.3149414h-5.2890625c-0.2763672,0-0.5-0.2236328-0.5-0.5s0.2236328-0.5,0.5-0.5h5.2890625
					c0.2763672,0,0.5,0.2236328,0.5,0.5S19.6489258,39.3149414,19.3725586,39.3149414z"/>
			</g>
			<g>
				<path d="M11.6254883,39.3149414h-1.3925781c-0.2763672,0-0.5-0.2236328-0.5-0.5s0.2236328-0.5,0.5-0.5h1.3925781
					c0.2763672,0,0.5,0.2236328,0.5,0.5S11.9018555,39.3149414,11.6254883,39.3149414z"/>
			</g>
			<g>
				<path d="M19.3725586,41.6547852h-3.3720703c-0.2763672,0-0.5-0.2236328-0.5-0.5s0.2236328-0.5,0.5-0.5h3.3720703
					c0.2763672,0,0.5,0.2236328,0.5,0.5S19.6489258,41.6547852,19.3725586,41.6547852z"/>
			</g>
			<g>
				<path d="M14.0834961,41.6547852h-3.8505859c-0.2763672,0-0.5-0.2236328-0.5-0.5s0.2236328-0.5,0.5-0.5h3.8505859
					c0.2763672,0,0.5,0.2236328,0.5,0.5S14.3598633,41.6547852,14.0834961,41.6547852z"/>
			</g>
		</g>
	</g>
	<g>
		<g>
			<path class="st1" d="M42.7720947,37.3544998v7.6000366c0,0.8499756-0.6900024,1.539978-1.5400391,1.539978H29.1720581
				c-0.8499756,0-1.539978-0.6900024-1.539978-1.539978v-7.6000366c0-0.8499756,0.6900024-1.539978,1.539978-1.539978h12.0599976
				C42.0820923,35.8145218,42.7720947,36.5045242,42.7720947,37.3544998z"/>
			<path d="M41.2319336,46.9946289H29.1723633c-1.125,0-2.0400391-0.9150391-2.0400391-2.0400391v-7.5996094
				c0-1.125,0.9150391-2.0400391,2.0400391-2.0400391h12.0595703c1.125,0,2.0400391,0.9150391,2.0400391,2.0400391v7.5996094
				C43.2719727,46.0795898,42.3569336,46.9946289,41.2319336,46.9946289z M29.1723633,36.3149414
				c-0.5732422,0-1.0400391,0.4667969-1.0400391,1.0400391v7.5996094c0,0.5732422,0.4667969,1.0400391,1.0400391,1.0400391
				h12.0595703c0.5732422,0,1.0400391-0.4667969,1.0400391-1.0400391v-7.5996094
				c0-0.5732422-0.4667969-1.0400391-1.0400391-1.0400391H29.1723633z"/>
		</g>
		<g>
			<g>
				<path d="M35.8588867,43.9946289h-5.2265625c-0.2763672,0-0.5-0.2236328-0.5-0.5s0.2236328-0.5,0.5-0.5h5.2265625
					c0.2763672,0,0.5,0.2236328,0.5,0.5S36.1352539,43.9946289,35.8588867,43.9946289z"/>
			</g>
			<g>
				<path d="M39.7719727,43.9946289H37.815918c-0.2763672,0-0.5-0.2236328-0.5-0.5s0.2236328-0.5,0.5-0.5h1.9560547
					c0.2763672,0,0.5,0.2236328,0.5,0.5S40.0483398,43.9946289,39.7719727,43.9946289z"/>
			</g>
			<g>
				<path d="M39.7719727,39.3149414h-5.2880859c-0.2763672,0-0.5-0.2236328-0.5-0.5s0.2236328-0.5,0.5-0.5h5.2880859
					c0.2763672,0,0.5,0.2236328,0.5,0.5S40.0483398,39.3149414,39.7719727,39.3149414z"/>
			</g>
			<g>
				<path d="M32.0258789,39.3149414h-1.3935547c-0.2763672,0-0.5-0.2236328-0.5-0.5s0.2236328-0.5,0.5-0.5h1.3935547
					c0.2763672,0,0.5,0.2236328,0.5,0.5S32.3022461,39.3149414,32.0258789,39.3149414z"/>
			</g>
			<g>
				<path d="M39.7719727,41.6547852h-3.3710938c-0.2763672,0-0.5-0.2236328-0.5-0.5s0.2236328-0.5,0.5-0.5h3.3710938
					c0.2763672,0,0.5,0.2236328,0.5,0.5S40.0483398,41.6547852,39.7719727,41.6547852z"/>
			</g>
			<g>
				<path d="M34.4838867,41.6547852h-3.8515625c-0.2763672,0-0.5-0.2236328-0.5-0.5s0.2236328-0.5,0.5-0.5h3.8515625
					c0.2763672,0,0.5,0.2236328,0.5,0.5S34.7602539,41.6547852,34.4838867,41.6547852z"/>
			</g>
		</g>
	</g>
	<g>
		<g>
			<path class="st0" d="M31.5635185,28.7273903H18.4403477c-0.922142,0-1.4258671-1.0758228-0.836729-1.7844563l4.3630123-5.191246
				c0.4610462-0.5464573,1.314867-0.5122719,1.7247353,0.0768661l1.8954582,2.6895065
				c0.3927765,0.5635509,1.2039165,0.6232719,1.6735077,0.1195469l1.1099567-1.1611843
				c0.4695911-0.4952316,1.2806797-0.4440041,1.6820545,0.1194954l2.3991833,3.4152832
				C32.9639015,27.7369823,32.4429779,28.7273903,31.5635185,28.7273903z"/>
		</g>
		<g>
			<circle class="st0" cx="26.5890121" cy="19.9224319" r="1.440823"/>
		</g>
	</g>
</g>
</svg>
