<?xml version="1.0" encoding="UTF-8"?>
<svg id="Layer_1" xmlns="http://www.w3.org/2000/svg" version="1.1" viewBox="0 0 24 24">
  <!-- Generator: Adobe Illustrator 29.0.0, SVG Export Plug-In . SVG Version: 2.1.0 Build 186)  -->
  <defs>
    <style>
      .st0 {
        fill: #fff;
      }
    </style>
  </defs>
  <path class="st0" d="M7.3,18.5l.7.4c1.2.7,2.6,1.1,4,1.1,4.4,0,8-3.6,8-8s-3.6-8-8-8S4,7.6,4,12s.4,2.8,1.1,4l.4.7-.7,2.4,2.4-.7h0ZM2,22l1.4-5c-.9-1.5-1.4-3.3-1.4-5C2,6.5,6.5,2,12,2s10,4.5,10,10-4.5,10-10,10-3.5-.5-5-1.4l-5,1.4ZM8.4,7.3h.6c.2,0,.3,0,.4.2.3.7.6,1.4.9,2v.5c0,.1-.2.3-.3.4l-.4.4v.3s0,.1.1.2h0c.3.5.6,1,1,1.4s.2.2.4.3c.5.4,1,.8,1.6,1h0s.1,0,.3.1h.2c.1,0,.3,0,.4-.1.7-.9.8-.9.8-.9h0c.1,0,.2-.1.4-.1h.2c.5.2,1.4.6,1.4.6l.6.3s.2.2.2.3v.4c0,.3-.1.6-.2.7,0,.1-.1.2-.2.3s-.2.2-.3.3h-.1c-.1,0-.3.2-.4.2-.3.1-.5.2-.8.2h-1.2c-1.4-.4-2.7-1.1-3.8-2l-.6-.6c-.9-.9-1.6-1.8-2-2.7-.2-.4-.3-.9-.3-1.4s.2-1.2.6-1.7c0,0,0-.2.3-.3.1,0,.2-.2.3-.2h.4-.5Z"/>
</svg>